<?xml version="1.0" encoding="iso-8859-1"?>
<!-- Generator: Adobe Illustrator 19.0.0, SVG Export Plug-In . SVG Version: 6.00 Build 0)  -->
<svg version="1.1" id="Layer_1" xmlns="http://www.w3.org/2000/svg" xmlns:xlink="http://www.w3.org/1999/xlink" x="0px" y="0px"
	 viewBox="0 0 502.4 502.4" style="enable-background:new 0 0 502.4 502.4;" xml:space="preserve">
<path style="fill:#FCA12A;" d="M502.4,333.2c0-55.2-36-103.2-91.2-132c-19.2,72.8-103.2,128-204,128c-43.2,0-83.2-10.4-116.8-27.2
	c-2.4,10.4-4,20.8-4,31.2c0,88,92.8,159.2,208,159.2c43.2,0,84-10.4,116.8-28l88,25.6L476,411.6
	C492.8,388.4,502.4,361.2,502.4,333.2z"/>
<path style="fill:#EA860F;" d="M411.2,201.2c-19.2,72.8-103.2,128-204,128c-43.2,0-83.2-10.4-116.8-27.2c-2.4,10.4-4,20.8-4,31.2
	c0,88,92.8,159.2,208,159.2"/>
<path style="fill:#3AC2F2;" d="M295.2,174c43.2,0,83.2,10.4,116.8,27.2c2.4-10.4,4-20.8,4-31.2c0-88-92.8-159.2-208-159.2
	C93.6,10.8,0,82,0,170c0,28.8,9.6,55.2,27.2,78.4l-24,78.4l87.2-25.6h0.8C110.4,229.2,194.4,174,295.2,174z"/>
<path style="fill:#009CC6;" d="M90.4,301.2C90.4,302,91.2,302,90.4,301.2c19.2-72.8,104-128,204.8-128c43.2,0,83.2,10.4,116.8,27.2
	c2.4-10.4,4-20.8,4-31.2C416,81.2,323.2,10,208,10"/>
<circle style="fill:#3CC676;" cx="251.2" cy="251.6" r="24"/>
<path style="fill:#0AA06E;" d="M251.2,227.6c13.6,0,24,10.4,24,24s-10.4,24-24,24"/>
<g>
</g>
<g>
</g>
<g>
</g>
<g>
</g>
<g>
</g>
<g>
</g>
<g>
</g>
<g>
</g>
<g>
</g>
<g>
</g>
<g>
</g>
<g>
</g>
<g>
</g>
<g>
</g>
<g>
</g>
</svg>
