<?xml version="1.0" encoding="iso-8859-1"?>
<!-- Generator: Adobe Illustrator 19.0.0, SVG Export Plug-In . SVG Version: 6.00 Build 0)  -->
<svg version="1.1" id="Layer_1" xmlns="http://www.w3.org/2000/svg" xmlns:xlink="http://www.w3.org/1999/xlink" x="0px" y="0px"
	 viewBox="0 0 497.8 497.8" style="enable-background:new 0 0 497.8 497.8;" xml:space="preserve">
<g>
	<g>
		<path style="fill:#3C92CA;" d="M102.6,15.7c0,5.5,4.4,9.9,9.9,9.9h106.4c5.5,0,9.9-4.4,9.9-9.9s-4.4-9.9-9.9-9.9H112.5
			C107,5.8,102.6,10.2,102.6,15.7z"/>
		<path style="fill:#3C92CA;" d="M273.4,25.6h108.9c5.5,0,9.9-4.4,9.9-9.9s-4.4-9.9-9.9-9.9H273.4c-5.5,0-9.9,4.4-9.9,9.9
			S267.9,25.6,273.4,25.6z"/>
		<path style="fill:#2C2F33;" d="M487.9,415.9h-14.6l-13.7-162.4c-1.5-18.1-14.9-32.9-32.1-36.9l-7.8-120.1
			c-0.3-5.2-4.7-9.3-9.9-9.3h-15.4V69.5c0-15.2-12.4-27.6-27.6-27.6h-73.2c-15.2,0-27.6,12.4-27.6,27.6v17.8h-33.9V69.5
			c0-15.2-12.4-27.6-27.6-27.6h-73.2c-15.2,0-27.6,12.4-27.6,27.6v17.8H88c-5.2,0-9.5,4.1-9.9,9.3l-7.8,120.1
			c-17.2,4-30.5,18.9-31.9,37.2l-12.3,162H9.9c-5.5,0-9.9,4.4-9.9,9.9v32.4C0,476.9,15.2,492,33.8,492h159
			c18.7,0,33.8-15.2,33.8-33.8v-32.4c0-5.5-4.4-9.9-9.9-9.9H45.9l12.2-160.5c0.9-11.2,10.3-20,21.5-20c5.2,0,9.5-4.1,9.9-9.3
			l7.7-119h16h108.7h53.7h108.7h16l7.7,119c0.3,5.2,4.9,9.3,10.1,9.3c11.1,0,20.6,8.7,21.5,19.8l13.8,160.7H281.1
			c-5.5,0-9.9,4.4-9.9,9.9v32.4c0,18.7,15.2,33.8,33.8,33.8h159c18.7,0,33.8-15.2,33.8-33.8v-32.4
			C497.8,420.4,493.4,415.9,487.9,415.9z M206.8,435.7v22.5c0,7.7-6.3,14-14,14h-159c-7.7,0-14-6.3-14-14v-22.5H206.8z M212.1,87.4
			h-88.9V69.5c0-4.3,3.5-7.8,7.8-7.8h73.2c4.3,0,7.8,3.5,7.8,7.8v17.9H212.1z M374.6,87.4h-88.9V69.5c0-4.3,3.5-7.8,7.8-7.8h73.2
			c4.3,0,7.8,3.5,7.8,7.8v17.9H374.6z M478,458.2c0,7.7-6.3,14-14,14H305c-7.7,0-14-6.3-14-14v-22.5h187V458.2z"/>
		<path style="fill:#2C2F33;" d="M194.2,394.4c5.5,0,9.9-4.4,9.9-9.9V266.1h79.2v118.4c0,5.5,4.4,9.9,9.9,9.9s9.9-4.4,9.9-9.9V266.1
			h37.8c21.4,0,38.7-17.4,38.7-38.7v-17.6c0-21.4-17.4-38.7-38.7-38.7H158.6c-21.4,0-38.7,17.4-38.7,38.7v17.6
			c0,21.4,17.4,38.7,38.7,38.7h25.7v118.4C184.3,389.9,188.7,394.4,194.2,394.4z M158.6,246.3c-10.4,0-18.9-8.5-18.9-18.9v-17.6
			c0-10.4,8.5-18.9,18.9-18.9h182.3c10.4,0,18.9,8.5,18.9,18.9v17.6c0,10.4-8.5,18.9-18.9,18.9H158.6z"/>
	</g>
</g>
<g>
</g>
<g>
</g>
<g>
</g>
<g>
</g>
<g>
</g>
<g>
</g>
<g>
</g>
<g>
</g>
<g>
</g>
<g>
</g>
<g>
</g>
<g>
</g>
<g>
</g>
<g>
</g>
<g>
</g>
</svg>
