<?xml version="1.0" encoding="iso-8859-1"?>
<!-- Generator: Adobe Illustrator 19.0.0, SVG Export Plug-In . SVG Version: 6.00 Build 0)  -->
<svg version="1.1" id="Layer_1" xmlns="http://www.w3.org/2000/svg" xmlns:xlink="http://www.w3.org/1999/xlink" x="0px" y="0px"
	 viewBox="0 0 489.626 489.626" style="enable-background:new 0 0 489.626 489.626;" xml:space="preserve">
<g>
	<g>
		<path style="fill:#3C92CA;" d="M170.013,146.326c-4.1-1.9-8.2-3.7-12.3-5.6c-5.1-2.2-10.9-1.3-14.5,2.4c-2.3,2.3-3.6,5.5-3.6,8.9
			c0,3.1,1.1,5.5,1.8,6.8l82.5,182.7c3.2,7.1,8.4,8.6,12.2,8.6c0.2,0,0.5,0,0.7,0c3.7-0.2,8.8-1.9,11.7-9.2l9.2-22.9
			c5.7-14.3,11.5-28.6,17.2-42.9c15.7-6.2,31.3-12.5,47-18.8l19.1-7.6c7.5-3,9.1-8.2,9.1-12.1c0-3.8-1.4-9-8.6-12.3
			c-47.4-21.6-94.9-43.1-142.3-64.7L170.013,146.326z M314.413,238.026c-16.9,6.8-33.9,13.6-50.9,20.3c-2.5,1-4.5,3-5.5,5.5
			c-6.2,15.6-12.5,31.2-18.7,46.8l-3.6,8.9l-69.1-153l24.3,11.1c42.8,19.5,85.6,39,128.4,58.4L314.413,238.026z"/>
		<path style="fill:#2C2F33;" d="M153.313,439.026c1.4,0.6,2.8,0.9,4.2,0.9c3.7,0,7.3-2.1,9-5.7c2.3-4.9,0.2-10.8-4.7-13.2
			c-68.1-32.1-111-98.8-111.8-174.1c-1.2-106.3,83.4-194,189.3-197l-13.2,13.5c-3.8,3.9-3.8,10.2,0.2,14c1.9,1.9,4.4,2.8,6.9,2.8
			c2.6,0,5.1-1,7.1-3l29.9-30.6c3.8-3.9,3.8-10.2-0.2-14l-30.6-29.8c-3.9-3.8-10.2-3.8-14,0.2c-3.8,3.9-3.8,10.2,0.2,14l13.6,13.3
			c-116.9,3-210.4,99.7-209,217c0.5,41.1,12.6,80.8,35,115C86.913,395.626,117.413,422.126,153.313,439.026z"/>
		<path style="fill:#2C2F33;" d="M250.213,486.826c1.9,1.9,4.4,2.8,6.9,2.8c2.6,0,5.1-1,7.1-3c3.8-3.9,3.8-10.2-0.2-14l-13.6-13.3
			c116.9-3,210.4-99.7,209-217c-0.5-41.1-12.6-80.8-35-115c-21.8-33.3-52.3-59.8-88.2-76.8c-5-2.3-10.8-0.2-13.2,4.7
			c-2.3,4.9-0.2,10.8,4.7,13.2c68.1,32.1,111,98.8,111.8,174.1c1.2,106.3-83.4,194-189.3,197l13.2-13.5c3.8-3.9,3.8-10.2-0.2-14
			c-3.9-3.8-10.2-3.8-14,0.2l-29.9,30.6c-3.8,3.9-3.8,10.2,0.2,14L250.213,486.826z"/>
	</g>
</g>
<g>
</g>
<g>
</g>
<g>
</g>
<g>
</g>
<g>
</g>
<g>
</g>
<g>
</g>
<g>
</g>
<g>
</g>
<g>
</g>
<g>
</g>
<g>
</g>
<g>
</g>
<g>
</g>
<g>
</g>
</svg>
