<?xml version="1.0" encoding="iso-8859-1"?>
<!-- Generator: Adobe Illustrator 19.0.0, SVG Export Plug-In . SVG Version: 6.00 Build 0)  -->
<svg version="1.1" id="Layer_1" xmlns="http://www.w3.org/2000/svg" xmlns:xlink="http://www.w3.org/1999/xlink" x="0px" y="0px"
	 viewBox="0 0 490 490" style="enable-background:new 0 0 490 490;" xml:space="preserve">
<g>
	<g>
		<path style="fill:#2C2F33;" d="M284.3,111h-84.2c-5.5,0-9.9,4.4-9.9,9.9s4.4,9.9,9.9,9.9h84.2c5.5,0,9.9-4.4,9.9-9.9
			C294.2,115.4,289.8,111,284.3,111z"/>
		<path style="fill:#2C2F33;" d="M385.6,448.8c-5.5,0-9.9,4.4-9.9,9.9s4.4,9.9,9.9,9.9H417c5.5,0,9.9-4.4,9.9-9.9V321.6h22.3
			c5.5,0,9.9-4.4,9.9-9.9v-36.5h21c5.5,0,9.9-4.4,9.9-9.9s-4.4-9.9-9.9-9.9h-86.2l-10.5-58.1c-2.5-13.7-14.4-23.6-28.2-23.6h-11.6
			l-6.7-113c-1.3-22-19.6-39.3-41.7-39.3H194.9c-22.1,0-40.4,17.2-41.7,39.3l-6.7,113h-11.6c-13.9,0-25.8,9.9-28.2,23.6l-10.5,58.1
			H9.9c-5.5,0-9.9,4.4-9.9,9.9s4.4,9.9,9.9,9.9h21v36.5c0,5.5,4.4,9.9,9.9,9.9h21.5v137.1c0,5.5,4.4,9.9,9.9,9.9h31.4
			c5.5,0,9.9-4.4,9.9-9.9s-4.4-9.9-9.9-9.9H82.1V321.6h325v127.2H385.6z M355.1,193.5c4.3,0,8,3.1,8.8,7.3l9.9,54.6h-25.3l-3.7-61.9
			H355.1z M173,61.9c0.7-11.6,10.3-20.6,21.9-20.6h100.2c11.6,0,21.2,9.1,21.9,20.6l11.6,193.5H161.4L173,61.9z M126.1,200.8
			c0.8-4.2,4.4-7.3,8.8-7.3h10.4l-3.7,61.9h-25.3L126.1,200.8z M50.7,301.8v-26.6h53.7l0,0l0,0h281.2l0,0l0,0h53.7v26.6H50.7z"/>
		<path style="fill:#3C92CA;" d="M349,351.3c0-5.5-4.4-9.9-9.9-9.9H150.9c-5.5,0-9.9,4.4-9.9,9.9s4.4,9.9,9.9,9.9h84.2V399h-40.5
			c-5.5,0-9.9,4.4-9.9,9.9v49.7c0,5.5,4.4,9.9,9.9,9.9s9.9-4.4,9.9-9.9v-39.8h30.6v39.8c0,5.5,4.4,9.9,9.9,9.9s9.9-4.4,9.9-9.9
			v-39.8h30.6v39.8c0,5.5,4.4,9.9,9.9,9.9s9.9-4.4,9.9-9.9v-49.7c0-5.5-4.4-9.9-9.9-9.9h-40.5v-37.8h84.2
			C344.6,361.2,349,356.8,349,351.3z"/>
	</g>
</g>
<g>
</g>
<g>
</g>
<g>
</g>
<g>
</g>
<g>
</g>
<g>
</g>
<g>
</g>
<g>
</g>
<g>
</g>
<g>
</g>
<g>
</g>
<g>
</g>
<g>
</g>
<g>
</g>
<g>
</g>
</svg>
