<?xml version="1.0" encoding="utf-8"?>
<!DOCTYPE svg PUBLIC "-//W3C//DTD SVG 1.1//EN" "http://www.w3.org/Graphics/SVG/1.1/DTD/svg11.dtd">
<svg xmlns="http://www.w3.org/2000/svg" xmlns:xlink="http://www.w3.org/1999/xlink" version="1.1" viewBox="0 0 512 512" enable-background="new 0 0 512 512" style="cursor: pointer;" width="512px" height="512px">
  <g>
    <g>
      <path d="m228.8,152.1c-2.1,7-3.1,14.3-3.1,21.7 0,43.7 34.3,111.3 80.1,111.3s80.1-67.6 80.1-111.3c0-7.4-1.1-14.7-3.1-21.7 15.7-9.3 25-21.6 25-35.5 0-16.3-12.3-31.7-35.4-41.3v-6.6c0-11.4-1-21.8-5.2-31.2-5.2-13.5-16.7-22.9-30.2-22.9-9.4-1.77636e-15-17.7,4.2-23.9,12.5-4.2,5.2-11.4,5.2-15.6,0 0,0-10.7-15.6-27-15.6-11.4,0-21.8,7.3-28.1,18.7-6.2,12.5-9.4,26-9.4,39.5v9.3c-19,9.5-29.1,23.1-29.1,37.5 0,14 9.2,26.3 24.9,35.6zm77,111.2c-30.2,0-59.3-56.2-59.3-90.5 0-4 0-8.1 1-12.1 37.6,13.2 91.8,13.1 116.7,0 1,4 1,8.1 1,12.1-0.1,34.3-29.2,90.5-59.4,90.5zm-51-193.5c0-11.4 2.1-21.8 6.2-29.1 4.2-8.3 12.7-9.5 17.7-3.1 8.4,10.8 17.7,15.6 27,15.6 9.4,0 17.7-5.2 23.9-12.5 6.2-7.3 15.6-4.2 18.7,5.2 3.1,7.3 4.2,15.6 4.2,23.9v8.3c-12,15.2-76.7,22.7-97.8-0.2v-8.1zm-10.3,27c14.6,11.4 36.4,17.7 58.3,16.6 23.9,0 45.8-6.2 61.4-18.7 14.6,6.2 22.9,14.6 22.9,21.8 0,13.5-31.2,32.3-81.1,32.3-49.9,0-81.1-18.7-81.1-32.3-0.1-6.1 7.1-14.5 19.6-19.7z" fill="#FFFFFF"/>
      <path d="m376.5,309.1h-26l-44.7,44.7-44.7-44.7h-26c-21.5,0-41.6,5.4-59.2,14.9l-24.4-24.4c22.9-30.6 20.5-74.1-7.3-101.9-30.5-30.5-79.9-30.5-110.3,0-30.5,30.5-30.5,79.9 0,110.3 28.2,28.2 72.4,30.3 103.1,6.4l21.2,21.2c-28.6,22.6-46.9,57.7-46.9,97.2v67.6h389.1v-67.6c-0.1-68.6-55.2-123.7-123.9-123.7zm-327.9-15.8c-22.3-22.3-22.3-58.6-2.13163e-14-80.9 22.3-22.3 58.6-22.3 80.9,0 22.3,22.3 22.3,58.6 0,80.9-22.4,22.4-58.6,22.4-80.9,0zm430.9,186.4h-347.4v-46.8c-2.84217e-14-33.7 16.2-63.4 41.1-82.2l45.1,45.1 14.7-14.7-41.5-41.5c13.3-6.3 28.1-9.7 43.6-9.7h17.7l53.1,53.1 53.1-53.1h17.7c57.2,0 103,46.8 103,103v46.8z" fill="#FFFFFF"/>
    </g>
  </g>
</svg>
