
<svg viewBox="111 11 390 490" version="1.1" xmlns="http://www.w3.org/2000/svg" xmlns:xlink="http://www.w3.org/1999/xlink" style="cursor: pointer;">
    <defs></defs>
    <g id="Group" stroke="none" stroke-width="1" fill="none" fill-rule="evenodd" transform="translate(111.000000, 11.000000)">
        <path d="M117.8,141.1 C115.7,148.1 114.7,155.4 114.7,162.8 C114.7,206.5 149,274.1 194.8,274.1 C240.6,274.1 274.9,206.5 274.9,162.8 C274.9,155.4 273.8,148.1 271.8,141.1 C287.5,131.8 296.8,119.5 296.8,105.6 C296.8,89.3 284.5,73.9 261.4,64.3 L261.4,57.7 C261.4,46.3 260.4,35.9 256.2,26.5 C251,13 239.5,3.6 226,3.6 C216.6,3.6 208.3,7.8 202.1,16.1 C197.9,21.3 190.7,21.3 186.5,16.1 C186.5,16.1 175.8,0.5 159.5,0.5 C148.1,0.5 137.7,7.8 131.4,19.2 C125.2,31.7 122,45.2 122,58.7 L122,68 C103,77.5 92.9,91.1 92.9,105.5 C92.9,119.5 102.1,131.8 117.8,141.1 L117.8,141.1 Z M194.8,252.3 C164.6,252.3 135.5,196.1 135.5,161.8 C135.5,157.8 135.5,153.7 136.5,149.7 C174.1,162.9 228.3,162.8 253.2,149.7 C254.2,153.7 254.2,157.8 254.2,161.8 C254.1,196.1 225,252.3 194.8,252.3 Z M143.8,58.8 C143.8,47.4 145.9,37 150,29.7 C154.2,21.4 162.7,20.2 167.7,26.6 C176.1,37.4 185.4,42.2 194.7,42.2 C204.1,42.2 212.4,37 218.6,29.7 C224.8,22.4 234.2,25.5 237.3,34.9 C240.4,42.2 241.5,50.5 241.5,58.8 L241.5,67.1 C229.5,82.3 164.8,89.8 143.7,66.9 L143.7,58.8 L143.8,58.8 Z M133.5,85.8 C148.1,97.2 169.9,103.5 191.8,102.4 C215.7,102.4 237.6,96.2 253.2,83.7 C267.8,89.9 276.1,98.3 276.1,105.5 C276.1,119 244.9,137.8 195,137.8 C145.1,137.8 113.9,119.1 113.9,105.5 C113.8,99.4 121,91 133.5,85.8 Z" id="Shape" fill="#fff"></path>
        <path d="M239.5,298.1 L194.8,342.8 L150.1,298.1 L124.1,298.1 C102.6,298.1 82.5,303.5 64.9,313 L47.2,324.6 C18.6,347.2 0.3,382.3 0.3,421.8 L0.3,489.4 L389.4,489.4 L389.4,421.8 C389.3,353.2 334.2,298.1 265.5,298.1 L239.5,298.1 Z M21.1,468.7 L21.1,421.9 C21.1,388.2 37.3,358.5 62.2,339.7 L80.5,328.6 C93.8,322.3 108.6,318.9 124.1,318.9 L141.8,318.9 L194.9,372 L248,318.9 L265.7,318.9 C322.9,318.9 368.7,365.7 368.7,421.9 L368.7,468.7 L21.1,468.7 Z" id="Shape" fill="#fff"></path>
    </g>
</svg>