<?xml version="1.0" encoding="iso-8859-1"?>
<!-- Generator: Adobe Illustrator 19.0.0, SVG Export Plug-In . SVG Version: 6.00 Build 0)  -->
<svg version="1.1" id="Layer_1" xmlns="http://www.w3.org/2000/svg" xmlns:xlink="http://www.w3.org/1999/xlink" x="0px" y="0px"
	 viewBox="0 0 492.6 492.6" style="enable-background:new 0 0 492.6 492.6;" xml:space="preserve">
<g>
	<g>
		<path style="fill:#3C92CA;" d="M332.4,385.2c3.4,0,6.7-1.8,8.6-5c2.7-4.7,1.1-10.8-3.6-13.5l-81.2-46.9v-93.7
			c0-5.5-4.4-9.9-9.9-9.9s-9.9,4.4-9.9,9.9v93.7l-81.2,46.9c-4.7,2.7-6.4,8.8-3.6,13.5c1.8,3.2,5.2,5,8.6,5c1.7,0,3.4-0.4,4.9-1.3
			l81.2-46.9l81.2,46.9C329,384.8,330.7,385.2,332.4,385.2z"/>
		<path style="fill:#2C2F33;" d="M433.9,388.3h-26c-10.2,0-18.6-8.3-18.6-18.6c0-10.2,8.3-18.6,18.6-18.6h45.8
			c5.5,0,9.9-4.4,9.9-9.9s-4.4-9.9-9.9-9.9h-22.9V314c0-5.5-4.4-9.9-9.9-9.9s-9.9,4.4-9.9,9.9v17.3h-3.1
			c-21.2,0-38.4,17.2-38.4,38.4c0,21.2,17.2,38.4,38.4,38.4h26c10.2,0,18.6,8.3,18.6,18.6s-8.3,18.6-18.6,18.6h-46.7
			c-5.5,0-9.9,4.4-9.9,9.9s4.4,9.9,9.9,9.9H411v17.6c0,5.5,4.4,9.9,9.9,9.9s9.9-4.4,9.9-9.9v-17.6h3.1c21.2,0,38.4-17.2,38.4-38.4
			S455.1,388.3,433.9,388.3z"/>
		<path style="fill:#2C2F33;" d="M71.7,304.1c-5.5,0-9.9,4.4-9.9,9.9v17.3h-3.1c-21.2,0-38.4,17.2-38.4,38.4
			c0,21.2,17.2,38.4,38.4,38.4h26c10.2,0,18.6,8.3,18.6,18.6s-8.4,18.6-18.6,18.6H38c-5.5,0-9.9,4.4-9.9,9.9s4.4,9.9,9.9,9.9h23.8
			v17.6c0,5.5,4.4,9.9,9.9,9.9s9.9-4.4,9.9-9.9v-17.6h3.1c21.2,0,38.4-17.2,38.4-38.4c0-21.2-17.2-38.4-38.4-38.4h-26
			c-10.2,0-18.6-8.3-18.6-18.6c0-10.2,8.3-18.6,18.6-18.6h45.8c5.5,0,9.9-4.4,9.9-9.9s-4.4-9.9-9.9-9.9H81.6V314
			C81.6,308.6,77.2,304.1,71.7,304.1z"/>
		<path style="fill:#2C2F33;" d="M246.3,188.5c5.5,0,9.9-4.4,9.9-9.9V161h3.1c21.2,0,38.4-17.2,38.4-38.4s-17.2-38.4-38.4-38.4h-26
			c-10.2,0-18.6-8.3-18.6-18.6c0-10.2,8.3-18.6,18.6-18.6h45.8c5.5,0,9.9-4.4,9.9-9.9s-4.4-9.9-9.9-9.9h-22.9V9.9
			c0-5.5-4.4-9.9-9.9-9.9s-9.9,4.4-9.9,9.9v17.3h-3.1c-21.2,0-38.4,17.2-38.4,38.4s17.2,38.4,38.4,38.4h26
			c10.2,0,18.6,8.3,18.6,18.6c0,10.2-8.3,18.6-18.6,18.6h-46.7c-5.5,0-9.9,4.4-9.9,9.9s4.4,9.9,9.9,9.9h23.8v17.6
			C236.4,184,240.8,188.5,246.3,188.5z"/>
	</g>
</g>
<g>
</g>
<g>
</g>
<g>
</g>
<g>
</g>
<g>
</g>
<g>
</g>
<g>
</g>
<g>
</g>
<g>
</g>
<g>
</g>
<g>
</g>
<g>
</g>
<g>
</g>
<g>
</g>
<g>
</g>
</svg>
