<?xml version="1.0" encoding="iso-8859-1"?>
<!-- Generator: Adobe Illustrator 19.0.0, SVG Export Plug-In . SVG Version: 6.00 Build 0)  -->
<svg version="1.1" id="Layer_1" xmlns="http://www.w3.org/2000/svg" xmlns:xlink="http://www.w3.org/1999/xlink" x="0px" y="0px"
	 viewBox="0 0 490.2 490.2" style="enable-background:new 0 0 490.2 490.2;" xml:space="preserve">
<g>
	<g>
		<path style="fill:#2C2F33;" d="M322.2,201.7v24.5c0,5.5,4.4,9.9,9.9,9.9s9.9-4.4,9.9-9.9v-24.5c0-8.2-3.6-15.9-9.9-21
			c-18.8-15.4-38.8-26.6-48.2-31.5v-24.9c4.6-4.8,7.2-11.2,7.2-18V70.5c0-23.2-18.9-42.1-42.1-42.1h-7.7
			c-23.2,0-42.1,18.9-42.1,42.1v35.8c0,6.8,2.6,13.2,7.2,18v24.8c-9.4,4.9-29.4,16.1-48.2,31.5c-6.3,5.2-9.9,12.8-9.9,21v24.5
			c0,5.5,4.4,9.9,9.9,9.9s9.9-4.4,9.9-9.9v-24.5c0-2.2,1-4.3,2.7-5.7c21.4-17.6,44.5-29.3,49-31.4c3.9-1.9,6.4-6,6.4-10.3v-34.5
			c0-3.3-1.7-6.4-4.4-8.2c-1.7-1.2-2.8-3.1-2.8-5.2V70.5c0-12.3,10-22.3,22.3-22.3h7.7c12.3,0,22.3,10,22.3,22.3v35.8
			c0,2.1-1,4-2.8,5.2c-2.8,1.8-4.4,4.9-4.4,8.2v34.5c0,4.4,2.5,8.4,6.4,10.3c4.4,2.2,27.6,13.8,49,31.4
			C321.2,197.3,322.2,199.4,322.2,201.7z"/>
		<path style="fill:#2C2F33;" d="M416.7,337.2c-2.8,1.8-4.4,4.9-4.4,8.2v34.5c0,4.4,2.5,8.4,6.4,10.3c4.4,2.2,27.6,13.9,49,31.4
			c1.7,1.4,2.7,3.5,2.7,5.7v24.5c0,5.5,4.4,9.9,9.9,9.9s9.9-4.4,9.9-9.9v-24.5c0-8.2-3.6-15.9-9.9-21
			c-18.8-15.4-38.8-26.6-48.2-31.5v-24.9c4.6-4.8,7.2-11.2,7.2-18v-35.8c0-23.2-18.9-42.1-42.1-42.1h-7.7
			c-23.2,0-42.1,18.9-42.1,42.1v35.8c0,6.8,2.6,13.2,7.2,18v24.9c-9.4,4.9-29.4,16.1-48.2,31.5c-6.3,5.2-9.9,12.9-9.9,21v24.5
			c0,5.5,4.4,9.9,9.9,9.9s9.9-4.4,9.9-9.9v-24.5c0-2.2,1-4.3,2.7-5.7c21.4-17.6,44.5-29.3,49-31.4c3.9-1.9,6.4-6,6.4-10.3v-34.5
			c0-3.3-1.7-6.4-4.4-8.2c-1.7-1.2-2.8-3.1-2.8-5.2v-35.8c0-12.3,10-22.3,22.3-22.3h7.7c12.3,0,22.3,10,22.3,22.3V332
			C419.5,334.1,418.5,336,416.7,337.2z"/>
		<path style="fill:#2C2F33;" d="M173.9,427.4v24.5c0,5.5,4.4,9.9,9.9,9.9s9.9-4.4,9.9-9.9v-24.5c0-8.2-3.6-15.9-9.9-21
			C165,391,145,379.8,135.6,374.9V350c4.6-4.8,7.2-11.2,7.2-18v-35.8c0-23.2-18.9-42.1-42.1-42.1H93c-23.2,0-42.1,18.9-42.1,42.1
			V332c0,6.8,2.6,13.2,7.2,18v24.9c-9.4,4.9-29.4,16.1-48.2,31.5c-6.3,5.2-9.9,12.8-9.9,21v24.5c0,5.5,4.4,9.9,9.9,9.9
			s9.9-4.4,9.9-9.9v-24.5c0-2.2,1-4.3,2.7-5.7c21.4-17.6,44.5-29.3,49-31.4c4-1.9,6.4-5.9,6.4-10.3v-34.5c0-3.3-1.7-6.4-4.4-8.2
			c-1.7-1.2-2.8-3.1-2.8-5.2v-35.8c0-12.3,10-22.3,22.3-22.3h7.7c12.3,0,22.3,10,22.3,22.3v35.8c0,2.1-1,4-2.8,5.2
			c-2.8,1.8-4.4,4.9-4.4,8.2V380c0,4.4,2.5,8.4,6.4,10.3c4.4,2.2,27.6,13.8,49,31.4C172.9,423.1,173.9,425.1,173.9,427.4z"/>
		<path style="fill:#3C92CA;" d="M245.1,378.6c5.5,0,9.9-4.4,9.9-9.9v-13.3h1.1c18.7,0,34-15.2,34-34s-15.2-34-34-34h-22
			c-7.8,0-14.2-6.4-14.2-14.2s6.4-14.1,14.2-14.1h38.7c5.5,0,9.9-4.4,9.9-9.9s-4.4-9.9-9.9-9.9h-17.9v-13.1c0-5.5-4.4-9.9-9.9-9.9
			s-9.9,4.4-9.9,9.9v13.1h-1c-18.7,0-34,15.2-34,34c0,18.7,15.2,34,34,34h22c7.8,0,14.2,6.4,14.2,14.2c0,7.8-6.4,14.2-14.2,14.2
			h-39.5c-5.5,0-9.9,4.4-9.9,9.9s4.4,9.9,9.9,9.9h18.6v13.3C235.2,374.2,239.6,378.6,245.1,378.6z"/>
	</g>
</g>
<g>
</g>
<g>
</g>
<g>
</g>
<g>
</g>
<g>
</g>
<g>
</g>
<g>
</g>
<g>
</g>
<g>
</g>
<g>
</g>
<g>
</g>
<g>
</g>
<g>
</g>
<g>
</g>
<g>
</g>
</svg>
