<?xml version="1.0" encoding="iso-8859-1"?>
<!-- Generator: Adobe Illustrator 19.0.0, SVG Export Plug-In . SVG Version: 6.00 Build 0)  -->
<svg version="1.1" id="Layer_1" xmlns="http://www.w3.org/2000/svg" xmlns:xlink="http://www.w3.org/1999/xlink" x="0px" y="0px"
	 viewBox="0 0 489.901 489.901" style="enable-background:new 0 0 489.901 489.901;" xml:space="preserve">
<g>
	<g>
		<path style="fill:#3C92CA;" d="M0.987,250.774c1.2,2.4,3.2,4.2,5.7,5l62.6,21.5c1.1,0.4,2.1,0.5,3.2,0.5c4.1,0,8-2.6,9.4-6.7
			l49.1-143.3l2.5,0.9c12.7,4.5,26.9,3.7,39-2.2l6.1-3c7.3-3.5,15.8-4.1,23.4-1.4l114.2,39.4c-1.2,4.4-3.5,9.5-7.5,12.3
			c-4.6,3.2-11.7,3.2-21,0l-51.2-17.5c-2.6-0.9-5.5-0.6-7.9,0.7s-4.2,3.6-4.9,6.2c-0.1,0.3-7.3,26.7-29.5,38.6
			c-14,7.5-31.5,7.7-52,0.7c-5.2-1.8-10.8,1-12.6,6.2c-1.8,5.2,1,10.8,6.2,12.6c12,4.1,23.4,6.2,34,6.2c12.3,0,23.6-2.8,33.9-8.3
			c20-10.8,30.6-29.4,35.5-40.9l42,14.4c15.6,5.3,28.6,4.5,38.7-2.5c15.9-11,17-32.5,17.1-34.9c0.1-4.3-2.6-8.2-6.7-9.7l-122-42.1
			c-12.6-4.3-26.6-3.5-38.6,2.4l-6.1,3c-7.4,3.6-16,4.1-23.7,1.4l-10.1-3.6c-0.6-0.4-1.2-0.7-1.9-0.9l-62.3-21.7
			c-5.2-1.8-10.8,1-12.6,6.2l-52.5,153C-0.313,245.674-0.113,248.374,0.987,250.774z M68.587,105.974l43.8,15l-46,134.3l-43.8-15
			L68.587,105.974z"/>
		<path style="fill:#2C2F33;" d="M104.087,341.474c4.9,10,14.7,15.8,25.1,16.2c0,4.3,1,8.7,2.9,12.7c3.4,7,9.3,12.2,16.7,14.7
			c3.1,1.1,6.3,1.6,9.4,1.6c4.4,0,8.7-1,12.7-3l5.2-2.6c0.4,3,1.3,6.1,2.7,9c3.4,7,9.3,12.2,16.7,14.7c3.1,1.1,6.3,1.6,9.4,1.6
			c4.4,0,8.7-1,12.7-3l113.7-55.7c25.4-12.4,48.8-28.4,69.6-47.5l25.4-23.3l58.1-28.4c4.9-2.4,6.9-8.3,4.5-13.2l-70.8-145.3
			c-1.2-2.4-3.2-4.2-5.7-5c-2.5-0.9-5.2-0.7-7.6,0.5l-59.4,29.1c-4.9,2.4-6.9,8.3-4.5,13.2l67.8,138.6l-21,19.3
			c-19.4,17.8-41.3,32.7-64.9,44.3l-113.7,55.7c-2.2,1.1-4.7,1.2-7.1,0.4c-2.3-0.8-4.2-2.5-5.3-4.7s-1.2-4.7-0.4-7.1
			c0.8-2.3,2.5-4.2,4.7-5.3l63.6-31.1c4.9-2.4,6.9-8.3,4.5-13.2c-2.4-4.9-8.3-6.9-13.2-4.5l-63.6,31.1l0,0l-30,14.7
			c-2.2,1.1-4.7,1.2-7.1,0.4c-2.3-0.8-4.2-2.5-5.3-4.7s-1.2-4.7-0.4-7.1c0.8-2.3,2.5-4.2,4.7-5.3l91.2-44.6
			c4.9-2.4,6.9-8.3,4.5-13.2c-2.4-4.9-8.3-6.9-13.2-4.5l-102.5,50.1c-4.6,2.2-10.1,0.3-12.4-4.2c-1.1-2.2-1.2-4.7-0.4-7.1
			c0.8-2.3,2.5-4.2,4.7-5.3l40.4-19.8l0,0l52.5-25.7c4.9-2.4,6.9-8.3,4.5-13.2c-2.4-4.9-8.3-6.9-13.2-4.5l-81.7,40
			c-4.6,2.2-10.1,0.3-12.4-4.2c-2.2-4.6-0.3-10.1,4.2-12.4l43.4-21.2c4.9-2.4,6.9-8.3,4.5-13.2s-8.3-6.9-13.2-4.5l-43.4,21.2
			c-14.4,7-20.4,24.5-13.3,38.9c2,4.1,4.8,7.4,8.2,10.1C100.587,320.074,99.187,331.574,104.087,341.474z M362.987,127.974
			l41.6-20.4l62.4,127.5l-41.6,20.4L362.987,127.974z"/>
	</g>
</g>
<g>
</g>
<g>
</g>
<g>
</g>
<g>
</g>
<g>
</g>
<g>
</g>
<g>
</g>
<g>
</g>
<g>
</g>
<g>
</g>
<g>
</g>
<g>
</g>
<g>
</g>
<g>
</g>
<g>
</g>
</svg>
