<?xml version="1.0" encoding="iso-8859-1"?>
<!-- Generator: Adobe Illustrator 19.0.0, SVG Export Plug-In . SVG Version: 6.00 Build 0)  -->
<svg version="1.1" id="Layer_1" xmlns="http://www.w3.org/2000/svg" xmlns:xlink="http://www.w3.org/1999/xlink" x="0px" y="0px"
	 viewBox="0 0 488.345 488.345" style="enable-background:new 0 0 488.345 488.345;" xml:space="preserve">
<g>
	<g>
		<path style="fill:#2C2F33;" d="M47.145,71.672v248l-46.1,92.6c-1.5,3.1-1.4,6.7,0.4,9.6s5,4.7,8.4,4.7h468.6l0,0
			c5.5,0,9.9-4.4,9.9-9.9c0-1.9-0.5-3.7-1.5-5.2l-45.3-91.8v-248c0-5.5-4.4-9.9-9.9-9.9h-374.6
			C51.545,61.772,47.145,66.172,47.145,71.672z M185.345,403.072l5.2-10.4h107.4l5.1,10.4H185.345z M66.945,81.572h355v230.5h-355
			L66.945,81.572L66.945,81.572z M425.645,331.872l36.9,74.9h-135.5l-14-28.4c-1.7-3.4-5.1-5.5-8.9-5.5h-119.7
			c-3.8,0-7.2,2.1-8.9,5.5l-14.1,28.4h-135.5l37.3-74.9H425.645z"/>
		<path style="fill:#3C92CA;" d="M255.645,186.772h-22.7c-8.3,0-15-6.7-15-15s6.7-15,15-15h40.1c5.5,0,9.9-4.4,9.9-9.9
			s-4.4-9.9-9.9-9.9h-18.9v-13.9c0-5.5-4.4-9.9-9.9-9.9s-9.9,4.4-9.9,9.9v13.9h-1.5c-19.2,0-34.8,15.6-34.8,34.8
			s15.6,34.8,34.8,34.8h22.7c8.3,0,15,6.7,15,15s-6.7,15-15,15h-40.9c-5.5,0-9.9,4.4-9.9,9.9s4.4,9.9,9.9,9.9h19.6v14.2
			c0,5.5,4.4,9.9,9.9,9.9s9.9-4.4,9.9-9.9v-14.2h1.5c19.2,0,34.8-15.6,34.8-34.8C290.445,202.472,274.845,186.772,255.645,186.772z"
			/>
	</g>
</g>
<g>
</g>
<g>
</g>
<g>
</g>
<g>
</g>
<g>
</g>
<g>
</g>
<g>
</g>
<g>
</g>
<g>
</g>
<g>
</g>
<g>
</g>
<g>
</g>
<g>
</g>
<g>
</g>
<g>
</g>
</svg>
