<?xml version="1.0" encoding="iso-8859-1"?>
<!-- Generator: Adobe Illustrator 19.0.0, SVG Export Plug-In . SVG Version: 6.00 Build 0)  -->
<svg version="1.1" id="Layer_1" xmlns="http://www.w3.org/2000/svg" xmlns:xlink="http://www.w3.org/1999/xlink" x="0px" y="0px"
	 viewBox="0 0 490.2 490.2" style="enable-background:new 0 0 490.2 490.2;" xml:space="preserve">
<g>
	<g>
		<path style="fill:#2C2F33;" d="M200.9,369.9H85.8c-5.5,0-9.9,4.4-9.9,9.9s4.4,9.9,9.9,9.9h106.6c3.1,8.6,11.4,14.7,21,14.7h63.2
			c9.6,0,17.9-6.1,21-14.7h106.7c5.5,0,9.9-4.4,9.9-9.9s-4.4-9.9-9.9-9.9H289.2c-5.5,0-9.9,4.4-9.9,9.9v2.2c0,1.4-1.2,2.6-2.6,2.6
			h-63.2c-1.4,0-2.6-1.2-2.6-2.6v-2.2C210.8,374.3,206.4,369.9,200.9,369.9z"/>
		<path style="fill:#2C2F33;" d="M480.3,369.9h-26V141.8c0-5.5-4.4-9.9-9.9-9.9s-9.9,4.4-9.9,9.9v238c0,5.5,4.5,9.9,10,9.9h25.9
			v13.6c0,14-11.4,25.4-25.4,25.4H45.2c-14,0-25.4-11.4-25.4-25.4v-13.6h25.9c5.5,0,9.9-4.4,9.9-9.9v-238c0-5.5-4.4-9.9-9.9-9.9
			s-9.9,4.4-9.9,9.9v228.1H9.9c-5.5,0-9.9,4.4-9.9,9.9v23.5c0,24.9,20.3,45.2,45.2,45.2H445c24.9,0,45.2-20.3,45.2-45.2v-23.5
			C490.2,374.3,485.8,369.9,480.3,369.9z"/>
		<path style="fill:#3C92CA;" d="M283.6,111.3l-57.1,56.8l-19.9-20c-3.9-3.9-10.1-3.9-14,0s-3.9,10.1,0,14l26.8,27
			c1.9,1.9,4.5,2.9,7,2.9s5-1,7-2.9l64.2-63.8c3.9-3.9,3.9-10.1,0-14C293.8,107.5,287.5,107.4,283.6,111.3z"/>
		<path style="fill:#2C2F33;" d="M367.3,41.7H122.9c-20,0-36.3,16.3-36.3,36.3v144.4c0,20,16.3,36.3,36.3,36.3h10.3v43.5
			c0,8.1,6.6,14.6,14.7,14.6c4.2,0,8.2-1.8,11-5.1l45.8-53h162.6c20,0,36.3-16.3,36.3-36.3V78C403.6,58,387.3,41.7,367.3,41.7z
			 M383.8,222.4c0,9.1-7.4,16.5-16.5,16.5H200.1c-2.9,0-5.6,1.2-7.5,3.4l-39.7,45.9v-39.4c0-5.5-4.4-9.9-9.9-9.9h-20.2
			c-9.1,0-16.5-7.4-16.5-16.5V78c0-9.1,7.4-16.5,16.5-16.5h244.4c9.1,0,16.5,7.4,16.5,16.5v144.4H383.8z"/>
	</g>
</g>
<g>
</g>
<g>
</g>
<g>
</g>
<g>
</g>
<g>
</g>
<g>
</g>
<g>
</g>
<g>
</g>
<g>
</g>
<g>
</g>
<g>
</g>
<g>
</g>
<g>
</g>
<g>
</g>
<g>
</g>
</svg>
