<?xml version="1.0" encoding="iso-8859-1"?>
<!-- Generator: Adobe Illustrator 19.0.0, SVG Export Plug-In . SVG Version: 6.00 Build 0)  -->
<svg version="1.1" id="Layer_1" xmlns="http://www.w3.org/2000/svg" xmlns:xlink="http://www.w3.org/1999/xlink" x="0px" y="0px"
	 viewBox="0 0 488.6 488.6" style="enable-background:new 0 0 488.6 488.6;" xml:space="preserve">
<g>
	<g>
		<path style="fill:#2C2F33;" d="M475.214,188.1c3.1-6,3.6-12.8,1.5-19.2s-6.5-11.6-12.5-14.6l-54-27.4c-1.5-0.8-2.6-2.2-2.8-3.9
			l-9.4-59.8c-1.9-12.3-12.4-21.2-24.8-21.2c-1.3,0-2.7,0.1-4,0.3l-59.8,9.5c-1.7,0.3-3.4-0.3-4.6-1.5l-42.7-42.9
			c-4.7-4.8-11.1-7.4-17.8-7.4s-13,2.6-17.8,7.4l-42.8,42.8c-1,1-2.4,1.6-3.8,1.6c-0.3,0-0.6,0-0.8-0.1l-59.8-9.5
			c-1.3-0.2-2.7-0.3-4-0.3c-12.4,0-22.9,8.9-24.8,21.2l-9.4,59.8c-0.3,1.7-1.3,3.1-2.8,3.9l-54,27.4c-6,3-10.4,8.2-12.5,14.6
			c-2.1,6.4-1.5,13.2,1.5,19.2l27.5,53.9c0.8,1.5,0.8,3.3,0,4.8l-27.5,53.9c-3.1,6-3.6,12.8-1.5,19.2c2.1,6.4,6.5,11.6,12.5,14.6
			l54,27.4c1.5,0.8,2.6,2.2,2.8,3.9l9.4,59.8c1.9,12.3,12.4,21.2,24.8,21.2c1.3,0,2.7-0.1,4-0.3l59.8-9.5c1.7-0.3,3.4,0.3,4.6,1.5
			l42.8,42.8c4.7,4.8,11.1,7.4,17.8,7.4s13-2.6,17.8-7.4l42.8-42.8c1.2-1.2,2.9-1.8,4.6-1.5l59.8,9.5c1.3,0.2,2.7,0.3,4,0.3
			c12.4,0,22.9-8.9,24.8-21.2l9.4-59.8c0.3-1.7,1.3-3.1,2.8-3.9l54-27.4c6-3,10.4-8.2,12.5-14.6s1.5-13.2-1.5-19.2l-27.5-53.9
			c-0.8-1.5-0.8-3.3,0-4.8L475.214,188.1z M430.014,255.8l27.5,53.9c0.6,1.3,0.8,2.7,0.3,4.1c-0.4,1.4-1.4,2.5-2.7,3.1l-54,27.4
			c-7.2,3.6-12.2,10.6-13.4,18.5l-9.4,59.8c-0.4,2.8-3.2,4.9-6.1,4.4l-59.8-9.5c-1.3-0.2-2.6-0.3-4-0.3c-6.7,0-13,2.6-17.8,7.4
			l-42.5,42.8c-2,2-5.5,2-7.5,0l-42.8-42.8c-4.7-4.7-11.2-7.4-17.8-7.4c-1.3,0-2.7,0.1-4,0.3l-59.8,9.5c-2.9,0.5-5.7-1.6-6.1-4.4
			l-9.4-59.8c-1.2-7.9-6.3-14.9-13.4-18.5l-54-27.4c-1.3-0.6-2.2-1.7-2.7-3.1c-0.4-1.4-0.3-2.8,0.3-4.1l27.5-53.9
			c3.7-7.2,3.7-15.7,0-22.9l-27.5-53.9c-0.6-1.3-0.8-2.7-0.3-4.1c0.4-1.4,1.4-2.5,2.7-3.1l54-27.4c7.2-3.6,12.2-10.6,13.4-18.5
			l9.4-59.8c0.4-2.8,3.2-4.9,6.1-4.4l59.8,9.5c1.3,0.2,2.6,0.3,4,0.3l0,0c6.7,0,13-2.6,17.8-7.4l42.7-42.7c2-2,5.5-2,7.5,0
			l42.8,42.8c4.7,4.8,11.1,7.4,17.8,7.4c1.3,0,2.7-0.1,4-0.3l59.8-9.5c2.9-0.5,5.6,1.6,6.1,4.4l9.4,59.8c1.2,7.9,6.3,14.9,13.4,18.5
			l54,27.4c1.3,0.6,2.2,1.7,2.7,3.1s0.3,2.8-0.3,4.1l-27.5,53.9C426.414,240.1,426.414,248.7,430.014,255.8z"/>
		<path style="fill:#3C92CA;" d="M322.514,184.7h-44.1v-30.6c0-16.2-4.9-28-14.6-35.1c-14.9-11-34.4-5.3-36.6-4.6
			c-4.1,1.3-6.9,5.1-6.9,9.4v39.1c0,27.5-32.8,37.2-34.1,37.6c-0.7,0.2-1.4,0.5-2,0.8c-3.3-2.4-7.3-3.9-11.7-3.9h-28.3
			c-10.8,0-19.5,8.8-19.5,19.5v97.7c0,10.8,8.8,19.5,19.5,19.5h28.3c4.8,0,9.2-1.8,12.7-4.7c6.2,5.1,14,8.2,22.6,8.2h95.8
			c23.2,0,38.7-12.8,41.4-34.2l12.9-81.8c0.1-0.5,0.1-1,0.1-1.5C358.014,200.6,342.114,184.7,322.514,184.7z M172.314,314.5h-27.8
			v-97.2h27.8V314.5z M325.514,300.7c0,0.1,0,0.2,0,0.3c-0.6,4.6-2.1,17-21.8,17h-95.8c-8.7,0-15.8-7.1-15.8-15.8v-82.7
			c5.6-1.7,48-15.8,48-56.5v-30.8c4-0.2,8.7,0.3,12,2.8c4.3,3.2,6.4,9.6,6.4,19.1v40.5c0,5.5,4.4,9.9,9.9,9.9h54
			c8.5,0,15.4,6.7,15.7,15.1L325.514,300.7z"/>
	</g>
</g>
<g>
</g>
<g>
</g>
<g>
</g>
<g>
</g>
<g>
</g>
<g>
</g>
<g>
</g>
<g>
</g>
<g>
</g>
<g>
</g>
<g>
</g>
<g>
</g>
<g>
</g>
<g>
</g>
<g>
</g>
</svg>
