<?xml version="1.0" encoding="iso-8859-1"?>
<!-- Generator: Adobe Illustrator 19.0.0, SVG Export Plug-In . SVG Version: 6.00 Build 0)  -->
<svg version="1.1" id="Layer_1" xmlns="http://www.w3.org/2000/svg" xmlns:xlink="http://www.w3.org/1999/xlink" x="0px" y="0px"
	 viewBox="0 0 490.2 490.2" style="enable-background:new 0 0 490.2 490.2;" xml:space="preserve">
<g>
	<g>
		<path style="fill:#2C2F33;" d="M200,176.4H82.4c-5.5,0-9.9,4.4-9.9,9.9v117.6c0,5.5,4.4,9.9,9.9,9.9H200c5.5,0,9.9-4.4,9.9-9.9
			V186.3C209.9,180.8,205.5,176.4,200,176.4z M190.1,294H92.3v-97.8h97.8V294z"/>
		<path style="fill:#2C2F33;" d="M82.4,490.2H200c5.5,0,9.9-4.4,9.9-9.9v-48.9h197.9c5.5,0,9.9-4.4,9.9-9.9V66.6
			c0-5.5-4.4-9.9-9.9-9.9H282.6L303,36.3c3.9-3.9,3.9-10.1,0-14c-3.9-3.9-10.1-3.9-14,0l-37.3,37.3c-3.9,3.9-3.9,10.1,0,14
			l37.3,37.3c1.9,1.9,4.5,2.9,7,2.9s5.1-1,7-2.9c3.9-3.9,3.9-10.1,0-14l-20.4-20.4h115.3v335.1h-188v-48.9c0-5.5-4.4-9.9-9.9-9.9
			H82.4c-5.5,0-9.9,4.4-9.9,9.9v117.6C72.5,485.7,77,490.2,82.4,490.2z M92.3,372.6h97.8v97.8H92.3V372.6z"/>
		<path style="fill:#3C92CA;" d="M209.9,9.9c0-5.5-4.4-9.9-9.9-9.9H82.4c-5.5,0-9.9,4.4-9.9,9.9v117.6c0,5.5,4.4,9.9,9.9,9.9H200
			c5.5,0,9.9-4.4,9.9-9.9V9.9L209.9,9.9z M190.1,117.6H92.3V19.8h97.8V117.6z"/>
	</g>
</g>
<g>
</g>
<g>
</g>
<g>
</g>
<g>
</g>
<g>
</g>
<g>
</g>
<g>
</g>
<g>
</g>
<g>
</g>
<g>
</g>
<g>
</g>
<g>
</g>
<g>
</g>
<g>
</g>
<g>
</g>
</svg>
