<?xml version="1.0" encoding="iso-8859-1"?>
<!-- Generator: Adobe Illustrator 19.0.0, SVG Export Plug-In . SVG Version: 6.00 Build 0)  -->
<svg version="1.1" id="Layer_1" xmlns="http://www.w3.org/2000/svg" xmlns:xlink="http://www.w3.org/1999/xlink" x="0px" y="0px"
	 viewBox="0 0 490.465 490.465" style="enable-background:new 0 0 490.465 490.465;" xml:space="preserve">
<g>
	<g>
		<path style="fill:#2C2F33;" d="M490.465,245.232c0-135.2-110-245.2-245.2-245.2c-5.5,0-9.9,4.4-9.9,9.9v90.7h-4.6
			c-45.9,0-83.3,37.3-83.3,83.3v122.7c0,45.9,37.3,83.3,83.3,83.3h28.9c45.9,0,83.3-37.3,83.3-83.3v-122.8
			c0-45.9-37.3-83.3-83.3-83.3h-4.6v-80.6c119.8,5.2,215.6,104.3,215.6,225.3c0,79.6-40.7,151.7-108.8,193
			c-70.4,42.6-156.3,43.3-235.6,1.9c-32.6-17.1-58.9-43.4-76-76.1c-53.3-102.3-35.7-215,44.9-286.9c4.1-3.6,4.4-9.9,0.8-14
			s-9.9-4.4-14-0.8c-40.1,35.8-67.7,84.4-77.7,136.9c-10.8,57.1-1,117.3,28.4,173.8c18.9,36.4,48.1,65.6,84.4,84.5
			c42,22,85.8,32.9,128.6,32.9c44.3,0,87.6-11.8,126.5-35.4C446.265,410.232,490.465,331.732,490.465,245.232z M259.765,120.332
			c35,0,63.5,28.5,63.5,63.5v122.7c0,35-28.5,63.5-63.5,63.5h-28.9c-35,0-63.5-28.5-63.5-63.5v-122.7c0-35,28.5-63.5,63.5-63.5
			L259.765,120.332L259.765,120.332z"/>
		<path style="fill:#3C92CA;" d="M245.265,220.232c5.5,0,9.9-4.4,9.9-9.9v-49c0-5.5-4.4-9.9-9.9-9.9s-9.9,4.4-9.9,9.9v49
			C235.365,215.732,239.765,220.232,245.265,220.232z"/>
	</g>
</g>
<g>
</g>
<g>
</g>
<g>
</g>
<g>
</g>
<g>
</g>
<g>
</g>
<g>
</g>
<g>
</g>
<g>
</g>
<g>
</g>
<g>
</g>
<g>
</g>
<g>
</g>
<g>
</g>
<g>
</g>
</svg>
