<?xml version="1.0" encoding="iso-8859-1"?>
<!-- Generator: Adobe Illustrator 19.0.0, SVG Export Plug-In . SVG Version: 6.00 Build 0)  -->
<svg version="1.1" id="Layer_1" xmlns="http://www.w3.org/2000/svg" xmlns:xlink="http://www.w3.org/1999/xlink" x="0px" y="0px"
	 viewBox="0 0 490.1 490.1" style="enable-background:new 0 0 490.1 490.1;" xml:space="preserve">
<g>
	<g>
		<path style="fill:#2C2F33;" d="M289,74.3V40.4C289,18.1,270.9,0,248.6,0h-7.3c-22.3,0-40.4,18.1-40.4,40.4v33.9
			c0,6.5,2.5,12.6,6.8,17.2v23c-9,4.7-27.8,15.3-45.4,29.8c-6.1,5-9.6,12.4-9.6,20.3v23.2c0,5.5,4.4,9.9,9.9,9.9s9.9-4.4,9.9-9.9
			v-23.2c0-2,0.9-3.8,2.4-5c20.2-16.6,42.1-27.6,46.3-29.7c3.9-1.9,6.4-5.9,6.4-10.2V87c0-3.3-1.7-6.4-4.4-8.2
			c-1.5-1-2.4-2.7-2.4-4.5V40.4c0-11.4,9.2-20.6,20.6-20.6h7.3c11.4,0,20.6,9.2,20.6,20.6v33.9c0,1.8-0.9,3.5-2.4,4.5
			c-2.8,1.8-4.4,4.9-4.4,8.2v32.7c0,4.3,2.5,8.4,6.4,10.2c4.2,2,26.1,13.1,46.3,29.7c1.5,1.2,2.4,3.1,2.4,5v23.2
			c0,5.5,4.4,9.9,9.9,9.9s9.9-4.4,9.9-9.9v-23.2c0-7.9-3.5-15.3-9.6-20.3c-17.6-14.5-36.4-25-45.4-29.8v-23
			C286.6,86.9,289,80.8,289,74.3z"/>
		<path style="fill:#2C2F33;" d="M443.9,441c-15.2-12.5-31.3-21.7-39.5-26v-19c3.8-4.2,6-9.8,6-15.6v-29.8
			c0-20.3-16.5-36.7-36.7-36.7h-6.4c-20.3,0-36.7,16.5-36.7,36.7v29.8c0,5.8,2.2,11.4,6,15.6v19c-8.2,4.3-24.3,13.5-39.5,26
			c-5.6,4.6-8.9,11.5-8.9,18.8v20.4c0,5.5,4.4,9.9,9.9,9.9s9.9-4.4,9.9-9.9v-20.4c0-1.4,0.6-2.6,1.6-3.5
			c17.7-14.5,36.8-24.2,40.5-26c3.9-1.9,6.3-5.8,6.3-10.1v-28.7c0-3.3-1.7-6.4-4.4-8.2c-1-0.7-1.6-1.8-1.6-2.9v-29.8
			c0-9.3,7.6-16.9,16.9-16.9h6.4c9.3,0,16.9,7.6,16.9,16.9v29.8c0,1.2-0.6,2.3-1.6,2.9c-2.8,1.8-4.4,4.9-4.4,8.2v28.7
			c0,4.3,2.4,8.2,6.3,10.1c3.7,1.8,22.8,11.4,40.5,25.9c1,0.9,1.6,2.1,1.6,3.5v20.4c0,5.5,4.4,9.9,9.9,9.9s9.9-4.4,9.9-9.9v-20.4
			C452.8,452.5,449.5,445.7,443.9,441z"/>
		<path style="fill:#2C2F33;" d="M191.4,439.6c-14.9-12.3-30.9-21.3-39-25.7v-18.7c3.8-4.2,5.9-9.7,5.9-15.5v-29.4
			c0-20.1-16.3-36.4-36.4-36.4h-6.3c-20.1,0-36.4,16.3-36.4,36.4v29.4c0,5.8,2.1,11.3,5.9,15.5v18.7c-8.1,4.3-24.1,13.4-39,25.7
			c-5.6,4.6-8.8,11.4-8.8,18.7v20.2c0,5.5,4.4,9.9,9.9,9.9c5.5,0,9.9-4.4,9.9-9.9v-20.2c0-1.3,0.6-2.6,1.6-3.4
			C76.1,440.6,95,431,98.6,429.3c3.8-1.9,6.3-5.8,6.3-10.1v-28.4c0-3.3-1.7-6.4-4.4-8.2c-0.9-0.6-1.5-1.7-1.5-2.8v-29.4
			c0-9.2,7.5-16.6,16.6-16.6h6.3c9.2,0,16.6,7.5,16.6,16.6v29.4c0,1.1-0.6,2.2-1.5,2.8c-2.8,1.8-4.4,4.9-4.4,8.2v28.4
			c0,4.3,2.5,8.2,6.3,10.1c3.6,1.8,22.5,11.3,40,25.6c1,0.8,1.6,2,1.6,3.4v20.2c0,5.5,4.4,9.9,9.9,9.9s9.9-4.4,9.9-9.9v-20.2
			C200.2,451,196.9,444.2,191.4,439.6z"/>
		<path style="fill:#3C92CA;" d="M370.5,301.1c5.5,0,9.9-4.4,9.9-9.9v-43.1c0-5.5-4.4-9.9-9.9-9.9H254.9v-33.1
			c0-5.5-4.4-9.9-9.9-9.9s-9.9,4.4-9.9,9.9v33.2H118.7c-5.5,0-9.9,4.4-9.9,9.9v43.1c0,5.5,4.4,9.9,9.9,9.9s9.9-4.4,9.9-9.9v-33.2
			h232v33.2C360.6,296.7,365,301.1,370.5,301.1z"/>
	</g>
</g>
<g>
</g>
<g>
</g>
<g>
</g>
<g>
</g>
<g>
</g>
<g>
</g>
<g>
</g>
<g>
</g>
<g>
</g>
<g>
</g>
<g>
</g>
<g>
</g>
<g>
</g>
<g>
</g>
<g>
</g>
</svg>
