<?xml version="1.0" encoding="iso-8859-1"?>
<!-- Generator: Adobe Illustrator 19.0.0, SVG Export Plug-In . SVG Version: 6.00 Build 0)  -->
<svg version="1.1" id="Layer_1" xmlns="http://www.w3.org/2000/svg" xmlns:xlink="http://www.w3.org/1999/xlink" x="0px" y="0px"
	 viewBox="0 0 489.7 489.7" style="enable-background:new 0 0 489.7 489.7;" xml:space="preserve">
<g>
	<g>
		<path style="fill:#2C2F33;" d="M173.5,155.4c-5.5,4.6-8.7,11.3-8.7,18.5v19.8c0,5.5,4.4,9.9,9.9,9.9s9.9-4.4,9.9-9.9v-19.8
			c0-1.2,0.5-2.4,1.5-3.2c17.1-14.1,35.7-23.4,39.3-25.2c3.9-1.9,6.3-5.7,6.3-10v-27.9c0-3.3-1.7-6.4-4.4-8.2
			c-0.9-0.6-1.4-1.6-1.4-2.6V67.7c0-8.9,7.2-16.2,16.2-16.2h6.2c8.9,0,16.2,7.2,16.2,16.2v28.9c0,1-0.5,2-1.4,2.6
			c-2.8,1.8-4.4,4.9-4.4,8.2v27.9c0,4.3,2.4,8.2,6.3,10.1c3.5,1.7,22.1,11.1,39.2,25.2c0.9,0.8,1.5,1.9,1.5,3.2v19.8
			c0,5.5,4.4,9.9,9.9,9.9s9.9-4.4,9.9-9.9v-19.8c0-7.2-3.2-13.9-8.7-18.5c-14.6-12-30.2-20.9-38.3-25.2v-18.2
			c3.7-4.2,5.8-9.6,5.8-15.3V67.7c0-19.8-16.1-36-36-36h-6.2c-19.8,0-36,16.1-36,36v28.9c0,5.7,2.1,11.1,5.8,15.3v18.2
			C203.8,134.4,188.2,143.3,173.5,155.4z"/>
		<path style="fill:#2C2F33;" d="M479.8,458c5.5,0,9.9-4.4,9.9-9.9v-17.4c0-6.7-3-12.9-8.1-17.2c-12.6-10.3-26-18.1-33.2-22v-14.9
			c3.3-3.8,5.1-8.7,5.1-13.9v-25.4c0-18.1-14.7-32.8-32.8-32.8h-5.5c-18.1,0-32.8,14.7-32.8,32.8v25.4c0,5.2,1.9,10.1,5.1,13.9v14.9
			c-7.3,3.9-20.6,11.6-33.2,22c-5.1,4.2-8.1,10.5-8.1,17.2v17.4c0,5.5,4.4,9.9,9.9,9.9s9.9-4.4,9.9-9.9v-17.4c0-0.7,0.3-1.4,0.9-1.9
			c15-12.3,31.2-20.5,34.3-22c3.8-1.8,6.2-5.7,6.2-9.9v-24.5c0-3.3-1.7-6.4-4.4-8.2c-0.2-0.1-0.7-0.6-0.7-1.3v-25.4
			c0-7.2,5.8-13,13-13h5.5c7.2,0,13,5.8,13,13v25.4c0,0.8-0.5,1.2-0.7,1.3c-2.8,1.8-4.4,4.9-4.4,8.2v24.5c0,4.2,2.4,8.1,6.2,9.9
			c3.1,1.5,19.3,9.7,34.3,22c0.6,0.5,0.9,1.1,0.9,1.9v17.4C469.9,453.6,474.3,458,479.8,458z"/>
		<path style="fill:#2C2F33;" d="M306.3,458c5.5,0,9.9-4.4,9.9-9.9v-17.4c0-6.7-3-13-8.1-17.2c-12.6-10.3-26-18.1-33.2-22v-14.9
			c3.3-3.8,5.1-8.7,5.1-13.9v-25.4c0-18.1-14.7-32.8-32.8-32.8h-5.5c-18.1,0-32.8,14.7-32.8,32.8v25.4c0,5.2,1.9,10.1,5.1,13.9v14.9
			c-7.3,3.9-20.6,11.6-33.2,22c-5.1,4.2-8.1,10.5-8.1,17.2v17.4c0,5.5,4.4,9.9,9.9,9.9s9.9-4.4,9.9-9.9v-17.4c0-0.7,0.3-1.4,0.9-1.9
			c15-12.3,31.2-20.5,34.3-22c3.8-1.8,6.2-5.7,6.2-9.9v-24.5c0-3.3-1.7-6.4-4.4-8.2c-0.2-0.1-0.7-0.6-0.7-1.3v-25.4
			c0-7.2,5.8-13,13-13h5.5c7.2,0,13,5.8,13,13v25.4c0,0.8-0.5,1.2-0.7,1.3c-2.8,1.8-4.4,4.9-4.4,8.2v24.5c0,4.2,2.4,8.1,6.2,9.9
			c3.1,1.5,19.3,9.7,34.3,22c0.6,0.5,0.9,1.1,0.9,1.9v17.4C296.4,453.6,300.9,458,306.3,458z"/>
		<path style="fill:#2C2F33;" d="M68.1,324.3h5.4c7,0,12.8,5.7,12.8,12.8v25.1c0,0.7-0.5,1.1-0.6,1.2c-2.8,1.8-4.4,4.9-4.4,8.2v24.3
			c0,4.2,2.4,8.1,6.2,9.9c3.1,1.5,19.1,9.6,33.9,21.7c0.5,0.4,0.8,1.1,0.8,1.8v17.2c0,5.5,4.4,9.9,9.9,9.9s9.9-4.4,9.9-9.9v-17.2
			c0-6.6-2.9-12.9-8-17.1c-12.4-10.2-25.6-17.8-32.8-21.7v-14.6c3.2-3.8,5.1-8.6,5.1-13.8V337c0-17.9-14.6-32.6-32.6-32.6h-5.4
			c-17.9,0-32.6,14.6-32.6,32.6v25.1c0,5.1,1.8,10,5.1,13.8v14.6C33.6,394.4,20.4,402,8,412.2c-5.1,4.2-8,10.4-8,17.1v17.2
			c0,5.5,4.4,9.9,9.9,9.9s9.9-4.4,9.9-9.9v-17.2c0-0.7,0.3-1.3,0.8-1.8c14.8-12.1,30.8-20.2,33.9-21.7c3.8-1.8,6.2-5.7,6.2-9.9
			v-24.3c0-3.3-1.7-6.4-4.4-8.2c-0.2-0.1-0.6-0.5-0.6-1.2v-25.1C55.3,330.1,61,324.3,68.1,324.3z"/>
		<path style="fill:#3C92CA;" d="M417.9,291.9c5.5,0,9.9-4.4,9.9-9.9v-36.8c0-5.5-4.4-9.9-9.9-9.9H255v-26.9c0-5.5-4.4-9.9-9.9-9.9
			s-9.9,4.4-9.9,9.9v26.9H71.5c-5.5,0-9.9,4.4-9.9,9.9V282c0,5.5,4.4,9.9,9.9,9.9s9.9-4.4,9.9-9.9v-26.9h153.8V282
			c0,5.5,4.4,9.9,9.9,9.9s9.9-4.4,9.9-9.9v-26.9h153V282C408,287.5,412.4,291.9,417.9,291.9z"/>
	</g>
</g>
<g>
</g>
<g>
</g>
<g>
</g>
<g>
</g>
<g>
</g>
<g>
</g>
<g>
</g>
<g>
</g>
<g>
</g>
<g>
</g>
<g>
</g>
<g>
</g>
<g>
</g>
<g>
</g>
<g>
</g>
</svg>
