<?xml version="1.0" encoding="iso-8859-1"?>
<!-- Generator: Adobe Illustrator 19.0.0, SVG Export Plug-In . SVG Version: 6.00 Build 0)  -->
<svg version="1.1" id="Layer_1" xmlns="http://www.w3.org/2000/svg" xmlns:xlink="http://www.w3.org/1999/xlink" x="0px" y="0px"
	 viewBox="0 0 492.1 492.1" style="enable-background:new 0 0 492.1 492.1;" xml:space="preserve">
<g>
	<g>
		<path style="fill:#2C2F33;" d="M20,492.1h452.1c5.5,0,9.9-4.4,9.9-9.9V133.8c0-0.6-0.1-1.2-0.2-1.8c0-0.2-0.1-0.4-0.2-0.6
			c-0.1-0.4-0.2-0.7-0.3-1.1c-0.1-0.2-0.2-0.5-0.3-0.7c-0.2-0.3-0.3-0.6-0.5-0.9c-0.1-0.2-0.3-0.4-0.4-0.6c-0.1-0.1-0.1-0.2-0.2-0.3
			l-97.7-124c-1.9-2.4-4.7-3.8-7.8-3.8H117.7c-3,0-5.9,1.4-7.8,3.8l-97.7,124c-0.1,0.1-0.1,0.2-0.2,0.3c-0.1,0.2-0.3,0.4-0.4,0.6
			c-0.2,0.3-0.4,0.6-0.5,0.9c-0.1,0.2-0.2,0.4-0.3,0.7c-0.1,0.4-0.2,0.7-0.3,1.1c-0.1,0.2-0.1,0.4-0.2,0.6c-0.1,0.6-0.2,1.2-0.2,1.8
			v348.4C10.1,487.7,14.6,492.1,20,492.1z M256,19.7h113.6l82.1,104.2H256V19.7z M122.6,19.7h113.6v104.2H40.4L122.6,19.7z
			 M29.9,143.7h432.3v328.6H29.9V143.7z"/>
		<path style="fill:#3C92CA;" d="M394,236.1H98.2c-5.5,0-9.9,4.4-9.9,9.9s4.4,9.9,9.9,9.9H394c5.5,0,9.9-4.4,9.9-9.9
			S399.5,236.1,394,236.1z"/>
		<path style="fill:#3C92CA;" d="M337.8,303.9H154.4c-5.5,0-9.9,4.4-9.9,9.9s4.4,9.9,9.9,9.9h183.4c5.5,0,9.9-4.4,9.9-9.9
			S343.3,303.9,337.8,303.9z"/>
		<path style="fill:#3C92CA;" d="M337.8,371.7H154.4c-5.5,0-9.9,4.4-9.9,9.9s4.4,9.9,9.9,9.9h183.4c5.5,0,9.9-4.4,9.9-9.9
			C347.7,376.2,343.3,371.7,337.8,371.7z"/>
	</g>
</g>
<g>
</g>
<g>
</g>
<g>
</g>
<g>
</g>
<g>
</g>
<g>
</g>
<g>
</g>
<g>
</g>
<g>
</g>
<g>
</g>
<g>
</g>
<g>
</g>
<g>
</g>
<g>
</g>
<g>
</g>
</svg>
