<?xml version="1.0" encoding="iso-8859-1"?>
<!-- Generator: Adobe Illustrator 19.0.0, SVG Export Plug-In . SVG Version: 6.00 Build 0)  -->
<svg version="1.1" id="Layer_1" xmlns="http://www.w3.org/2000/svg" xmlns:xlink="http://www.w3.org/1999/xlink" x="0px" y="0px"
	 viewBox="0 0 490.225 490.225" style="enable-background:new 0 0 490.225 490.225;" xml:space="preserve">
<g>
	<g>
		<path style="fill:#2C2F33;" d="M265.625,20.512c-61.1,0-118.2,24.1-160.8,67.8c-3.8,3.9-3.7,10.2,0.2,14c3.9,3.8,10.2,3.7,14-0.2
			c38.9-39.9,90.9-61.8,146.6-61.8c112.9,0,204.8,91.9,204.8,204.8s-91.9,204.8-204.8,204.8s-204.8-91.9-204.8-204.8v-8.1l24.1,24.1
			c1.9,1.9,4.5,2.9,7,2.9s5.1-1,7-2.9c3.9-3.9,3.9-10.1,0-14l-41-41c-3.9-3.9-10.1-3.9-14,0l-41,41c-3.9,3.9-3.9,10.1,0,14
			c1.9,1.9,4.5,2.9,7,2.9s5.1-1,7-2.9l24.1-24.1v8.1c0,123.8,100.7,224.6,224.6,224.6s224.6-100.8,224.6-224.6
			S389.425,20.512,265.625,20.512z"/>
		<path style="fill:#3C92CA;" d="M265.625,121.412c-36.3,0-65.8,29.5-65.8,65.8v34h-22.5c-5.5,0-9.9,4.4-9.9,9.9v113.9
			c0,5.5,4.4,9.9,9.9,9.9h176.5c5.5,0,9.9-4.4,9.9-9.9v-114c0-5.5-4.4-9.9-9.9-9.9h-22.5v-34
			C331.425,150.912,301.925,121.412,265.625,121.412z M219.625,187.212c0-25.4,20.6-46,46-46s46,20.6,46,46v34h-91.9v-34H219.625z
			 M344.025,240.912v94.1h-156.8v-94.1H344.025L344.025,240.912z"/>
	</g>
</g>
<g>
</g>
<g>
</g>
<g>
</g>
<g>
</g>
<g>
</g>
<g>
</g>
<g>
</g>
<g>
</g>
<g>
</g>
<g>
</g>
<g>
</g>
<g>
</g>
<g>
</g>
<g>
</g>
<g>
</g>
</svg>
