<?xml version="1.0" encoding="iso-8859-1"?>
<!-- Generator: Adobe Illustrator 19.0.0, SVG Export Plug-In . SVG Version: 6.00 Build 0)  -->
<svg version="1.1" id="Layer_1" xmlns="http://www.w3.org/2000/svg" xmlns:xlink="http://www.w3.org/1999/xlink" x="0px" y="0px"
	 viewBox="0 0 489.6 489.6" style="enable-background:new 0 0 489.6 489.6;" xml:space="preserve">
<g>
	<g>
		<path style="fill:#2C2F33;" d="M170.5,395.3c0,2.2,0.7,4.3,2,6l64.4,84.4c1.9,2.5,4.8,3.9,7.9,3.9c3.1,0,6-1.4,7.9-3.9l64.4-84.4
			c1.3-1.7,2-3.8,2-6V124.2c0-5.5-4.4-9.9-9.9-9.9s-9.9,4.4-9.9,9.9V392l-54.5,71.4L190.3,392V124.7c0-5.5-4.4-9.9-9.9-9.9
			s-9.9,4.4-9.9,9.9L170.5,395.3L170.5,395.3z"/>
		<path style="fill:#2C2F33;" d="M234.9,124.7v249c0,5.5,4.4,9.9,9.9,9.9s9.9-4.4,9.9-9.9v-249c0-5.5-4.4-9.9-9.9-9.9
			S234.9,119.2,234.9,124.7z"/>
		<path style="fill:#3C92CA;" d="M170.5,38.9v44.3c0,5.5,4.4,9.9,9.9,9.9h128.7c5.5,0,9.9-4.4,9.9-9.9V38.9
			C319,17.5,301.6,0,280.1,0h-70.7C188,0,170.5,17.4,170.5,38.9z M299.3,38.9v34.4h-109V38.9c0-10.5,8.6-19.1,19.1-19.1h70.7
			C290.7,19.8,299.3,28.3,299.3,38.9z"/>
	</g>
</g>
<g>
</g>
<g>
</g>
<g>
</g>
<g>
</g>
<g>
</g>
<g>
</g>
<g>
</g>
<g>
</g>
<g>
</g>
<g>
</g>
<g>
</g>
<g>
</g>
<g>
</g>
<g>
</g>
<g>
</g>
</svg>
