<?xml version="1.0" encoding="iso-8859-1"?>
<!-- Generator: Adobe Illustrator 19.0.0, SVG Export Plug-In . SVG Version: 6.00 Build 0)  -->
<svg version="1.1" id="Layer_1" xmlns="http://www.w3.org/2000/svg" xmlns:xlink="http://www.w3.org/1999/xlink" x="0px" y="0px"
	 viewBox="0 0 489.8 489.8" style="enable-background:new 0 0 489.8 489.8;" xml:space="preserve">
<g>
	<g>
		<path style="fill:#2C2F33;" d="M479.9,2.25H9.9c-5.5,0-9.9,4.4-9.9,9.9s4.4,9.9,9.9,9.9h18.3v287c0,14.5,11.8,26.3,26.3,26.3
			h382.6c14.5,0,26.3-11.8,26.3-26.3v-287h16.5c5.5,0,9.9-4.4,9.9-9.9S485.4,2.25,479.9,2.25z M443.6,309.05c0,3.6-2.9,6.5-6.5,6.5
			H54.5c-3.6,0-6.5-2.9-6.5-6.5v-287h395.6V309.05z"/>
		<path style="fill:#2C2F33;" d="M260.5,400.75v-25.7H295c5.5,0,9.9-4.4,9.9-9.9s-4.4-9.9-9.9-9.9h-90.2c-5.5,0-9.9,4.4-9.9,9.9
			s4.4,9.9,9.9,9.9h35.9v25.7l-69.9,69.9c-3.9,3.9-3.9,10.1,0,14c1.9,1.9,4.5,2.9,7,2.9s5.1-1,7-2.9l55.9-55.9v48.9
			c0,5.5,4.4,9.9,9.9,9.9s9.9-4.4,9.9-9.9v-48.9l55.6,55.6c1.9,1.9,4.5,2.9,7,2.9s5.1-1,7-2.9c3.9-3.9,3.9-10.1,0-14L260.5,400.75z"
			/>
		<path style="fill:#3C92CA;" d="M282.3,147.65h75.6c5.5,0,9.9-4.4,9.9-9.9c0-20.9-7.6-41-21.4-56.6c-16.2-18.4-39.6-28.9-64.1-28.9
			c-5.5,0-9.9,4.4-9.9,9.9v75.6C272.4,143.25,276.8,147.65,282.3,147.65z M292.2,72.85c15.1,2.3,29.1,9.8,39.3,21.4
			c8.4,9.5,13.8,21.2,15.7,33.6h-55V72.85z"/>
		<path style="fill:#2C2F33;" d="M239.7,285.25c58.5,0,106.2-47.6,106.2-106.2c0-5.5-4.4-9.9-9.9-9.9h-86.4v-86.3
			c0-5.5-4.4-9.9-9.9-9.9c-58.5,0-106.2,47.6-106.2,106.2C133.5,237.65,181.1,285.25,239.7,285.25z M229.7,93.25v85.8
			c0,5.5,4.4,9.9,9.9,9.9h85.8c-4.9,43-41.5,76.5-85.8,76.5c-47.6,0-86.4-38.7-86.4-86.4C153.3,134.85,186.8,98.25,229.7,93.25z"/>
	</g>
</g>
<g>
</g>
<g>
</g>
<g>
</g>
<g>
</g>
<g>
</g>
<g>
</g>
<g>
</g>
<g>
</g>
<g>
</g>
<g>
</g>
<g>
</g>
<g>
</g>
<g>
</g>
<g>
</g>
<g>
</g>
</svg>
