<?xml version="1.0" encoding="iso-8859-1"?>
<!-- Generator: Adobe Illustrator 19.0.0, SVG Export Plug-In . SVG Version: 6.00 Build 0)  -->
<svg version="1.1" id="Layer_1" xmlns="http://www.w3.org/2000/svg" xmlns:xlink="http://www.w3.org/1999/xlink" x="0px" y="0px"
	 viewBox="0 0 490.1 490.1" style="enable-background:new 0 0 490.1 490.1;" xml:space="preserve">
<g>
	<g>
		<path style="fill:#2C2F33;" d="M9.9,22.05h18.4v287.2c0,14.5,11.8,26.3,26.3,26.3h382.8c14.5,0,26.3-11.8,26.3-26.3V22.05h16.5
			c5.5,0,9.9-4.4,9.9-9.9s-4.4-9.9-9.9-9.9H9.9c-5.5,0-9.9,4.4-9.9,9.9S4.5,22.05,9.9,22.05z M48.1,22.05h395.8v287.2
			c0,3.6-2.9,6.5-6.5,6.5H54.6c-3.6,0-6.5-2.9-6.5-6.5V22.05z"/>
		<path style="fill:#2C2F33;" d="M171,470.95c-3.9,3.9-3.9,10.1,0,14c1.9,1.9,4.5,2.9,7,2.9s5.1-1,7-2.9l55.9-55.9v48.9
			c0,5.5,4.4,9.9,9.9,9.9s9.9-4.4,9.9-9.9v-48.9l55.6,55.6c1.9,1.9,4.5,2.9,7,2.9s5.1-1,7-2.9c3.9-3.9,3.9-10.1,0-14l-69.6-69.6
			v-25.8h34.5c5.5,0,9.9-4.4,9.9-9.9s-4.4-9.9-9.9-9.9H205c-5.5,0-9.9,4.4-9.9,9.9s4.4,9.9,9.9,9.9h35.9v25.8L171,470.95z"/>
		<path style="fill:#2C2F33;" d="M406.9,173.75l-16.3,16.4c-3.9,3.9-3.8,10.1,0,14c1.9,1.9,4.5,2.9,7,2.9s5.1-1,7-2.9l23.3-23.5
			c1.9-1.9,2.9-4.4,2.9-7s-1.1-5.1-2.9-7l-23.5-23.3c-3.9-3.9-10.1-3.8-14,0c-3.9,3.9-3.8,10.1,0,14L406.9,173.75z"/>
		<path style="fill:#2C2F33;" d="M89.3,204.05c1.9,1.9,4.5,2.9,7,2.9s5-1,7-2.9c3.9-3.9,3.9-10.1,0-14L87,173.65l16.4-16.3
			c3.9-3.9,3.9-10.1,0-14s-10.1-3.9-14,0l-23.5,23.3c-1.9,1.9-2.9,4.4-2.9,7s1,5.1,2.9,7L89.3,204.05z"/>
		<path style="fill:#3C92CA;" d="M130.6,274.75h229c5.5,0,9.9-4.4,9.9-9.9V73.05c0-5.5-4.4-9.9-9.9-9.9h-229c-5.5,0-9.9,4.4-9.9,9.9
			v191.9C120.7,270.35,125.1,274.75,130.6,274.75z M140.5,82.95h209.2v96.1l-47.7-47.7c-3.9-3.9-10.1-3.9-14,0l-73.3,73.3
			l-22.7-22.6c-1.9-1.9-4.4-2.9-7-2.9s-5.1,1-7,2.9l-37.5,37.5V82.95z M140.5,247.55l44.5-44.5l22.7,22.7c1.9,1.9,4.4,2.9,7,2.9
			s5.1-1,7-2.9l73.3-73.3l54.7,54.7v47.9H140.5V247.55z"/>
		<path style="fill:#3C92CA;" d="M229.2,133.65c0-16.8-13.7-30.5-30.5-30.5s-30.5,13.7-30.5,30.5s13.7,30.5,30.5,30.5
			S229.2,150.45,229.2,133.65z M188,133.65c0-5.9,4.8-10.7,10.7-10.7s10.7,4.8,10.7,10.7s-4.8,10.7-10.7,10.7S188,139.55,188,133.65
			z"/>
	</g>
</g>
<g>
</g>
<g>
</g>
<g>
</g>
<g>
</g>
<g>
</g>
<g>
</g>
<g>
</g>
<g>
</g>
<g>
</g>
<g>
</g>
<g>
</g>
<g>
</g>
<g>
</g>
<g>
</g>
<g>
</g>
</svg>
