<?xml version="1.0" encoding="iso-8859-1"?>
<!-- Generator: Adobe Illustrator 19.0.0, SVG Export Plug-In . SVG Version: 6.00 Build 0)  -->
<svg version="1.1" id="Layer_1" xmlns="http://www.w3.org/2000/svg" xmlns:xlink="http://www.w3.org/1999/xlink" x="0px" y="0px"
	 viewBox="0 0 490 490" style="enable-background:new 0 0 490 490;" xml:space="preserve">
<g>
	<g>
		<path style="fill:#2C2F33;" d="M481.85,342.9V162.2c0-22.7-18.5-41.2-41.2-41.2h-49.6V26.5c0-14.6-11.9-26.5-26.5-26.5h-239.1
			c-14.6,0-26.5,11.9-26.5,26.5V121h-49.6c-22.7,0-41.2,18.5-41.2,41.2v180.7c0,22.7,18.5,41.2,41.2,41.2h49.6v79.4
			c0,14.6,11.9,26.5,26.5,26.5h239.1c14.6,0,26.5-11.9,26.5-26.5V384h49.6C463.45,384,481.85,365.6,481.85,342.9z M118.75,26.5
			c0-3.7,3-6.7,6.7-6.7h239.1c3.7,0,6.7,3,6.7,6.7V121h-252.5V26.5z M371.35,463.5c0,3.7-3,6.7-6.7,6.7h-239.2c-3.7,0-6.7-3-6.7-6.7
			v-201h252.5v201H371.35z M462.05,342.9c0,11.8-9.6,21.4-21.4,21.4h-49.6V252.6c0-5.5-4.4-9.9-9.9-9.9h-272.3
			c-5.5,0-9.9,4.4-9.9,9.9v111.7h-49.6c-11.8,0-21.4-9.6-21.4-21.4V162.2c0-11.8,9.6-21.4,21.4-21.4h391.3
			c11.8,0,21.4,9.6,21.4,21.4V342.9L462.05,342.9z"/>
		<path style="fill:#2C2F33;" d="M78.55,181.6c-2.6,0-5.1,1.1-7,2.9c-1.8,1.9-2.9,4.4-2.9,7s1.1,5.1,2.9,7c1.9,1.8,4.4,2.9,7,2.9
			s5.1-1.1,7-2.9c1.8-1.8,2.9-4.4,2.9-7s-1.1-5.1-2.9-7C83.75,182.7,81.15,181.6,78.55,181.6z"/>
		<path style="fill:#3C92CA;" d="M174.95,376.2h140.3c5.5,0,9.9-4.4,9.9-9.9s-4.4-9.9-9.9-9.9h-140.3c-5.5,0-9.9,4.4-9.9,9.9
			S169.45,376.2,174.95,376.2z"/>
		<path style="fill:#3C92CA;" d="M174.95,432.3h140.3c5.5,0,9.9-4.4,9.9-9.9s-4.4-9.9-9.9-9.9h-140.3c-5.5,0-9.9,4.4-9.9,9.9
			S169.45,432.3,174.95,432.3z"/>
		<path style="fill:#3C92CA;" d="M174.95,320.1h140.3c5.5,0,9.9-4.4,9.9-9.9s-4.4-9.9-9.9-9.9h-140.3c-5.5,0-9.9,4.4-9.9,9.9
			S169.45,320.1,174.95,320.1z"/>
	</g>
</g>
<g>
</g>
<g>
</g>
<g>
</g>
<g>
</g>
<g>
</g>
<g>
</g>
<g>
</g>
<g>
</g>
<g>
</g>
<g>
</g>
<g>
</g>
<g>
</g>
<g>
</g>
<g>
</g>
<g>
</g>
</svg>
