<?xml version="1.0" encoding="iso-8859-1"?>
<!-- Generator: Adobe Illustrator 19.0.0, SVG Export Plug-In . SVG Version: 6.00 Build 0)  -->
<svg version="1.1" id="Layer_1" xmlns="http://www.w3.org/2000/svg" xmlns:xlink="http://www.w3.org/1999/xlink" x="0px" y="0px"
	 viewBox="0 0 490.2 490.2" style="enable-background:new 0 0 490.2 490.2;" xml:space="preserve">
<g>
	<g>
		<path style="fill:#3C92CA;" d="M114.1,335.2c3.1,0,6.1-0.6,9-1.8l12.1-5c7.6,10,16.5,18.9,26.5,26.5l-5,12.1
			c-2.4,5.8-2.4,12.2,0,18s6.9,10.3,12.7,12.7l21.1,8.8c2.9,1.2,5.9,1.8,9,1.8c9.5,0,18.1-5.7,21.7-14.5l5-12.1
			c12.4,1.7,25.1,1.7,37.5,0l5,12.1c3.6,8.8,12.2,14.5,21.7,14.5c3.1,0,6.1-0.6,9-1.8l21.1-8.7c12-5,17.7-18.7,12.7-30.7l-5-12.1
			c10-7.6,18.9-16.5,26.5-26.5l12.1,5c2.9,1.2,5.9,1.8,9,1.8c9.5,0,18.1-5.7,21.7-14.5l8.8-21.1c5-12-0.7-25.7-12.7-30.7l-12.1-5
			c1.7-12.5,1.7-25.1,0-37.5l12.1-5c12-5,17.7-18.7,12.7-30.7l-8.7-21.1c-3.6-8.8-12.2-14.5-21.7-14.5c-3.1,0-6.1,0.6-9,1.8l-12.1,5
			c-7.6-10-16.5-18.9-26.5-26.5l5-12.1c5-12-0.7-25.7-12.7-30.7l-21.1-8.8c-2.9-1.2-5.9-1.8-9-1.8c-9.5,0-18.1,5.7-21.7,14.5
			l-5,12.1c-12.4-1.7-25.1-1.7-37.5,0l-5-12.1c-3.6-8.8-12.2-14.5-21.7-14.5c-3.1,0-6.1,0.6-9,1.8l-21.1,8.7
			c-5.8,2.4-10.3,6.9-12.7,12.7c-2.4,5.8-2.4,12.2,0,18l5,12.1c-10,7.6-18.9,16.5-26.5,26.5l-12.1-5c-2.9-1.2-5.9-1.8-9-1.8
			c-9.5,0-18.1,5.7-21.7,14.5l-8.8,21.1c-5,12,0.7,25.7,12.7,30.7l12.1,5c-1.7,12.5-1.7,25.1,0,37.5l-12.1,5
			c-5.8,2.4-10.3,6.9-12.7,12.7c-2.4,5.8-2.4,12.2,0,18l8.7,21.1C96.1,329.5,104.6,335.2,114.1,335.2z M102,289.1
			c0.2-0.5,0.8-1.5,2-2l19.4-8c4.4-1.8,6.8-6.4,5.9-11.1c-3-15.2-3-30.7,0-45.9c0.9-4.6-1.6-9.3-5.9-11.1l-19.4-8
			c-1.9-0.8-2.8-2.9-2-4.8l8.8-21.1c0.7-1.7,2.3-2.3,3.4-2.3c0.5,0,1,0.1,1.4,0.3l19.4,8c4.4,1.8,9.4,0.3,12-3.6
			c8.6-12.9,19.6-23.9,32.5-32.5c3.9-2.6,5.5-7.7,3.7-12l-8-19.4c-0.8-1.9,0.1-4.1,2-4.8l21.1-8.7c0.5-0.2,0.9-0.3,1.4-0.3
			c1.1,0,2.7,0.6,3.4,2.3l8,19.4c1.8,4.4,6.4,6.8,11.1,5.9c15.1-3,30.8-3,45.9,0c4.6,0.9,9.3-1.6,11.1-5.9l8-19.4
			c0.7-1.7,2.3-2.3,3.4-2.3c0.5,0,1,0.1,1.4,0.3l21.1,8.8c1.9,0.8,2.8,2.9,2,4.8l-8,19.4c-1.8,4.4-0.3,9.4,3.6,12
			c12.9,8.6,23.9,19.6,32.5,32.5c2.6,3.9,7.6,5.5,12,3.7l19.4-8c0.5-0.2,0.9-0.3,1.4-0.3c1.1,0,2.7,0.6,3.4,2.3l8.7,21.1
			c0.8,1.9-0.1,4.1-2,4.8l-19.4,8c-4.4,1.8-6.8,6.4-5.9,11.1c3,15.2,3,30.7,0,45.9c-0.9,4.6,1.6,9.3,5.9,11.1l19.4,8
			c1.9,0.8,2.8,2.9,2,4.8l-8.8,21.1c-0.7,1.7-2.3,2.3-3.4,2.3c-0.5,0-1-0.1-1.4-0.3l-19.4-8c-4.4-1.8-9.4-0.3-12,3.6
			c-8.6,12.9-19.6,23.9-32.5,32.5c-3.9,2.6-5.5,7.7-3.7,12l8,19.4c0.8,1.9-0.1,4.1-2,4.8l-21.1,8.7c-0.5,0.2-0.9,0.3-1.4,0.3
			c-1.1,0-2.7-0.6-3.4-2.3l-8-19.4c-1.6-3.8-5.2-6.1-9.1-6.1c-0.6,0-1.3,0.1-1.9,0.2c-15.1,3-30.8,3-45.9,0
			c-4.6-0.9-9.3,1.6-11.1,5.9l-8,19.4c-0.7,1.7-2.3,2.3-3.4,2.3c-0.5,0-1-0.1-1.4-0.3l-21.1-8.8c-1.2-0.5-1.8-1.5-2-2
			s-0.5-1.6,0-2.8l8-19.4c1.8-4.4,0.3-9.4-3.6-12c-12.9-8.6-23.9-19.6-32.5-32.5c-2.6-3.9-7.7-5.5-12-3.7l-19.4,8
			c-0.5,0.2-0.9,0.3-1.4,0.3c-1.1,0-2.7-0.6-3.4-2.3l-8.8-21.1C101.5,290.7,101.7,289.7,102,289.1z"/>
		<path style="fill:#3C92CA;" d="M245.1,315.9c9.3,0,18.4-1.8,27.1-5.4c17.5-7.2,31.1-20.8,38.3-38.3s7.2-36.7,0-54.2
			c-11-26.6-36.7-43.7-65.5-43.7c-9.3,0-18.4,1.8-27.1,5.4c-17.5,7.2-31.1,20.8-38.3,38.3s-7.2,36.7,0,54.2
			C190.7,298.8,216.4,315.9,245.1,315.9z M198,225.6c5.2-12.6,15-22.4,27.6-27.6c6.2-2.6,12.8-3.9,19.5-3.9
			c20.7,0,39.2,12.4,47.2,31.5c5.2,12.6,5.2,26.5,0,39c-5.2,12.6-15,22.4-27.6,27.6c-6.2,2.6-12.8,3.9-19.5,3.9
			c-20.7,0-39.2-12.4-47.2-31.5C192.8,252,192.8,238.2,198,225.6z"/>
		<path style="fill:#2C2F33;" d="M245.1,490.2c135.1,0,245.1-110,245.1-245.1S380.2,0,245.1,0S0,110,0,245.1S110,490.2,245.1,490.2z
			 M245.1,19.8c124.2,0,225.3,101.1,225.3,225.3S369.3,470.4,245.1,470.4S19.8,369.3,19.8,245.1S120.9,19.8,245.1,19.8z"/>
	</g>
</g>
<g>
</g>
<g>
</g>
<g>
</g>
<g>
</g>
<g>
</g>
<g>
</g>
<g>
</g>
<g>
</g>
<g>
</g>
<g>
</g>
<g>
</g>
<g>
</g>
<g>
</g>
<g>
</g>
<g>
</g>
</svg>
