<?xml version="1.0" encoding="iso-8859-1"?>
<!-- Generator: Adobe Illustrator 19.0.0, SVG Export Plug-In . SVG Version: 6.00 Build 0)  -->
<svg version="1.1" id="Layer_1" xmlns="http://www.w3.org/2000/svg" xmlns:xlink="http://www.w3.org/1999/xlink" x="0px" y="0px"
	 viewBox="0 0 490.1 490.1" style="enable-background:new 0 0 490.1 490.1;" xml:space="preserve">
<g>
	<g>
		<path style="fill:#2C2F33;" d="M211.7,457.75c0-5.5-4.4-9.9-9.9-9.9H63.7c-24.2,0-43.8-19.7-43.8-43.8v-285.5h60v37.3
			c0,5.5,4.4,9.9,9.9,9.9s9.9-4.4,9.9-9.9v-37.3H219v37.3c0,5.5,4.4,9.9,9.9,9.9s9.9-4.4,9.9-9.9v-37.3h60v19.5
			c0,5.5,4.4,9.9,9.9,9.9s9.9-4.4,9.9-9.9v-29.4c0-5.5-4.4-9.9-9.9-9.9h-70c-1.7-42.3-36.6-76.3-79.4-76.3s-77.7,33.9-79.4,76.3h-70
			c-5.5,0-9.9,4.4-9.9,9.9v295.4c0,35.1,28.5,63.6,63.6,63.6h138.1C207.3,467.65,211.7,463.15,211.7,457.75z M159.3,42.25
			c31.8,0,57.9,25.1,59.6,56.5H99.7C101.4,67.35,127.5,42.25,159.3,42.25z"/>
		<path style="fill:#3C92CA;" d="M295.8,221.75v11.3h-54.5c-5.5,0-9.9,4.4-9.9,9.9v173.7c0,28.1,22.8,50.9,50.9,50.9h156.9
			c28.1,0,50.9-22.8,50.9-50.9v-173.7c0-5.5-4.4-9.9-9.9-9.9h-54.5v-11.3c0-35.8-29.1-65-65-65
			C324.9,156.85,295.8,185.95,295.8,221.75z M415.8,287.35c5.5,0,9.9-4.4,9.9-9.9v-24.6h44.6v163.8c0,17.2-14,31.1-31.1,31.1H282.3
			c-17.2,0-31.1-14-31.1-31.1v-163.8h44.6v24.6c0,5.5,4.4,9.9,9.9,9.9s9.9-4.4,9.9-9.9v-24.6h90.3v24.6
			C405.9,282.95,410.3,287.35,415.8,287.35z M405.9,221.75v11.3h-90.3v-11.3c0-24.9,20.3-45.2,45.2-45.2
			C385.6,176.65,405.9,196.85,405.9,221.75z"/>
	</g>
</g>
<g>
</g>
<g>
</g>
<g>
</g>
<g>
</g>
<g>
</g>
<g>
</g>
<g>
</g>
<g>
</g>
<g>
</g>
<g>
</g>
<g>
</g>
<g>
</g>
<g>
</g>
<g>
</g>
<g>
</g>
</svg>
