<?xml version="1.0" encoding="iso-8859-1"?>
<!-- Generator: Adobe Illustrator 19.0.0, SVG Export Plug-In . SVG Version: 6.00 Build 0)  -->
<svg version="1.1" id="Layer_1" xmlns="http://www.w3.org/2000/svg" xmlns:xlink="http://www.w3.org/1999/xlink" x="0px" y="0px"
	 viewBox="0 0 490.3 490.3" style="enable-background:new 0 0 490.3 490.3;" xml:space="preserve">
<g>
	<g>
		<path style="fill:#3C92CA;" d="M237.85,342.7c1.3,0.5,2.6,0.8,3.9,0.8c2.5,0,5-0.9,6.9-2.8l55.2-52.8h104.1
			c22.8,0,41.3-18.5,41.3-41.3V130.2c0-22.8-18.5-41.3-41.3-41.3h-190.8c-22.8,0-41.3,18.5-41.3,41.3v116.4
			c0,22.8,18.5,41.3,41.3,41.3h14.7v45.7C231.85,337.6,234.15,341.2,237.85,342.7z M217.15,268.1c-11.9,0-21.5-9.6-21.5-21.5V130.2
			c0-11.9,9.6-21.5,21.5-21.5h190.7c11.9,0,21.5,9.6,21.5,21.5v116.4c0,11.9-9.6,21.5-21.5,21.5h-108.1c-2.6,0-5,1-6.8,2.8
			l-41.3,39.6v-32.4c0-5.5-4.4-9.9-9.9-9.9h-24.6L217.15,268.1L217.15,268.1z"/>
		<path style="fill:#3C92CA;" d="M238.75,172.2h142.3c5.5,0,9.9-4.4,9.9-9.9s-4.4-9.9-9.9-9.9h-142.3c-5.5,0-9.9,4.4-9.9,9.9
			C228.85,167.8,233.35,172.2,238.75,172.2z"/>
		<path style="fill:#3C92CA;" d="M390.95,216.2c0-5.5-4.4-9.9-9.9-9.9h-142.3c-5.5,0-9.9,4.4-9.9,9.9s4.4,9.9,9.9,9.9h142.3
			C386.55,226.1,390.95,221.7,390.95,216.2z"/>
		<path style="fill:#737a82;" d="M345.65,453.9V321.5c0-5.5-4.4-9.9-9.9-9.9s-9.9,4.4-9.9,9.9V454c0,9.1-7.4,16.5-16.5,16.5h-232
			c-9.1,0-16.5-7.4-16.5-16.5V36.3c0-9.1,7.4-16.4,16.5-16.4h232c9.1,0,16.5,7.4,16.5,16.4V57c0,5.5,4.4,9.9,9.9,9.9
			s9.9-4.4,9.9-9.9V36.3c0-20-16.3-36.3-36.3-36.3h-232c-20,0-36.3,16.3-36.3,36.3V454c0,20,16.3,36.3,36.3,36.3h232
			C329.45,490.2,345.65,473.9,345.65,453.9z"/>
		<path style="fill:#737a82;" d="M223.15,411h-59.5c-5.5,0-9.9,4.4-9.9,9.9s4.4,9.9,9.9,9.9h59.5c5.5,0,9.9-4.4,9.9-9.9
			S228.65,411,223.15,411z"/>
	</g>
</g>
<g>
</g>
<g>
</g>
<g>
</g>
<g>
</g>
<g>
</g>
<g>
</g>
<g>
</g>
<g>
</g>
<g>
</g>
<g>
</g>
<g>
</g>
<g>
</g>
<g>
</g>
<g>
</g>
<g>
</g>
</svg>
