<?xml version="1.0" encoding="iso-8859-1"?>
<!-- Generator: Adobe Illustrator 19.0.0, SVG Export Plug-In . SVG Version: 6.00 Build 0)  -->
<svg version="1.1" id="Layer_1" xmlns="http://www.w3.org/2000/svg" xmlns:xlink="http://www.w3.org/1999/xlink" x="0px" y="0px"
	 viewBox="0 0 490.1 490.1" style="enable-background:new 0 0 490.1 490.1;" xml:space="preserve">
<g>
	<g>
		<path style="fill:#3C92CA;" d="M216.339,293.2c1.9,1.9,4.4,2.9,7,2.9s5.1-1,7-2.9l82.2-82.2c3.9-3.9,3.9-10.1,0-14s-10.1-3.9-14,0
			l-75.2,75.2l-31.8-31.8c-3.9-3.9-10.1-3.9-14,0s-3.9,10.1,0,14L216.339,293.2z"/>
		<path style="fill:#2C2F33;" d="M14.839,450.3c-7.5,3.7-11.7,11.7-10.4,19.9c1.3,8.3,7.6,14.7,15.9,16c6.1,1,12.7,1.4,19.4,1.4
			c18.2,0,52.9-3.7,86.9-27.9c36.1,19.9,76.9,30.4,118.4,30.4c65.5,0,127-25.5,173.3-71.8c95.6-95.6,95.6-251,0-346.6
			c-46.3-46.2-107.8-71.7-173.3-71.7s-127,25.5-173.3,71.8c-89.9,89.9-95.8,234-14.5,330.7C46.039,425.9,31.739,442,14.839,450.3z
			 M85.739,85.8c42.5-42.5,99.1-66,159.3-66s116.7,23.4,159.3,66c87.8,87.8,87.8,230.7,0,318.6c-42.5,42.5-99.1,66-159.3,66
			c-40.2,0-79.6-10.7-114.1-31c-1.6-0.9-3.3-1.4-5-1.4c-2.2,0-4.3,0.7-6.1,2.1c-31.1,24.1-63.6,27.7-80.2,27.7
			c-4.8,0-9.5-0.3-14-0.9c21.6-11.3,39.1-32.2,52.2-62.1c1.5-3.5,0.9-7.6-1.7-10.5C-2.461,305.4,1.739,169.9,85.739,85.8z"/>
	</g>
</g>
<g>
</g>
<g>
</g>
<g>
</g>
<g>
</g>
<g>
</g>
<g>
</g>
<g>
</g>
<g>
</g>
<g>
</g>
<g>
</g>
<g>
</g>
<g>
</g>
<g>
</g>
<g>
</g>
<g>
</g>
</svg>
