<?xml version="1.0" encoding="iso-8859-1"?>
<!-- Generator: Adobe Illustrator 19.0.0, SVG Export Plug-In . SVG Version: 6.00 Build 0)  -->
<svg version="1.1" id="Layer_1" xmlns="http://www.w3.org/2000/svg" xmlns:xlink="http://www.w3.org/1999/xlink" x="0px" y="0px"
	 viewBox="0 0 492.4 492.4" style="enable-background:new 0 0 492.4 492.4;" xml:space="preserve">
<g>
	<g>
		<path style="fill:#2C2F33;" d="M385.784,125.7l-18.2,25l-18.2-25c-2.7-3.7-7.5-5.1-11.7-3.4c-0.7,0.3-16.2,6.6-30.8,16.4
			c-14.7-9.8-30.1-16.1-30.8-16.4c-4.2-1.7-9-0.3-11.7,3.4l-18.2,25l-18.2-25c-2.7-3.7-7.5-5.1-11.7-3.4
			c-0.7,0.3-16.2,6.6-30.8,16.4c-14.7-9.8-30.2-16.1-30.8-16.4c-4.2-1.7-9-0.3-11.7,3.4l-18.2,25l-18.2-25
			c-2.7-3.7-7.5-5.1-11.7-3.4c-0.8,0.3-19.8,8-35.6,19.7c-4.5,3.3-6.6,5.4-10.3,9.1c-13.8,13.8-6.1,70.7-2.6,83.8
			c4.8,17.6,17.6,41.2,19.6,44.8c2.3,5.4,3.8,11.1,4.4,16.9l18,177c1.1,10.7,10,18.8,20.8,18.8h31.2c10.8,0,19.7-8.1,20.8-18.8
			l18-177c0.6-5.8,2.1-11.5,4.4-16.9c0.3-0.6,1-1.8,1.9-3.5c0.9,1.7,1.6,2.9,1.9,3.5c2.3,5.4,3.8,11.1,4.4,16.9l18,177
			c1.1,10.7,10,18.8,20.8,18.8h31.2c10.8,0,19.7-8.1,20.8-18.8l18-177c0.6-5.8,2.1-11.5,4.4-16.9c0.3-0.6,1-1.9,1.9-3.5
			c0.9,1.7,1.6,2.9,1.9,3.5c2.3,5.4,3.8,11.1,4.4,16.9l18,177c1.1,10.7,10,18.8,20.8,18.8h31.2c10.8,0,19.7-8.1,20.8-18.8l18-177
			c0.6-5.8,2.1-11.5,4.4-16.9c2-3.6,14.8-27.2,19.6-44.8c3.6-13.1,11.2-70.1-2.6-83.8c-3.7-3.7-5.8-5.8-10.3-9.1
			c-15.9-11.7-34.8-19.4-35.6-19.7C393.284,120.7,388.484,122,385.784,125.7z M165.884,270.6c-0.1,0.3-0.3,0.5-0.4,0.8
			c-3.3,7.4-5.3,15.2-6.1,23.3l-18,177c-0.1,0.6-0.5,1-1.1,1h-31.2c-0.6,0-1.1-0.4-1.1-1l-18-177c-0.8-8-2.9-15.9-6.1-23.3
			c-0.1-0.3-0.3-0.6-0.4-0.8c-0.1-0.2-13.6-24.4-18-40.8c-4.9-18.1-6.3-57.8-2.3-64.9c3.2-3.2,4.6-4.5,7.8-6.9
			c8.3-6.1,18-11.1,24.3-14.2l21.5,29.6c1.9,2.6,4.8,4.1,8,4.1s6.1-1.5,8-4.1l21.5-29.6c4.1,2,9.7,4.8,15.3,8.2
			c-12.7,15.1-5.3,70.1-1.8,83c1.6,5.9,4.1,12.5,6.8,18.8C170.084,263.1,165.984,270.5,165.884,270.6z M305.484,229.8
			c-4.4,16.3-17.9,40.5-18,40.8s-0.3,0.5-0.4,0.8c-3.3,7.4-5.3,15.2-6.1,23.3l-18,177c-0.1,0.6-0.5,1-1.1,1h-31.2
			c-0.6,0-1.1-0.4-1.1-1l-18-177c-0.8-8-2.9-15.9-6.1-23.3c-0.1-0.3-0.3-0.6-0.4-0.8c-0.1-0.2-13.6-24.4-18-40.8
			c-4.9-18.1-6.3-57.8-2.3-64.9c3.2-3.2,4.6-4.5,7.8-6.9c8.3-6.1,18-11.1,24.3-14.2l21.5,29.6c1.9,2.6,4.8,4.1,8,4.1s6.1-1.5,8-4.1
			l21.5-29.6c6.3,3,15.9,8,24.3,14.2c3.2,2.4,4.6,3.7,7.8,6.9C311.784,172,310.384,211.7,305.484,229.8z M429.184,164.9
			c4,7.1,2.7,46.8-2.3,64.9c-4.4,16.3-17.9,40.5-18,40.8s-0.3,0.5-0.4,0.8c-3.3,7.4-5.3,15.2-6.1,23.3l-18,177c-0.1,0.6-0.5,1-1.1,1
			h-31.2c-0.6,0-1.1-0.4-1.1-1l-18-177c-0.8-8-2.9-15.9-6.1-23.3c-0.1-0.3-0.3-0.6-0.4-0.8c0-0.1-4.1-7.4-8.6-16.8
			c2.7-6.3,5.2-12.9,6.8-18.8c3.5-12.8,10.9-67.8-1.8-83c5.7-3.4,11.2-6.2,15.3-8.2l21.5,29.6c1.9,2.6,4.8,4.1,8,4.1s6.1-1.5,8-4.1
			l21.5-29.6c6.3,3,15.9,8,24.3,14.2C424.684,160.4,425.984,161.7,429.184,164.9z"/>
		<path style="fill:#3C92CA;" d="M336.184,96.8c7.5,8.5,18,13.1,30.5,13.4c0.2,0,0.5,0,0.7,0c0.1,0,0.4,0,0.5,0c0.2,0,0.4,0,0.6,0
			c12.5-0.3,23-4.9,30.6-13.4c16-18,13.7-48,13.3-51.8c-1.6-33.1-24.7-44.9-43.9-44.9c-0.3,0-0.6,0-0.9,0c-0.2,0-0.5,0-0.9,0
			c-19.2,0-42.3,11.8-43.9,44.9C322.484,48.7,320.184,78.8,336.184,96.8z M342.584,46.8c0-0.2,0-0.4,0-0.6
			c1.1-22.9,15.6-26.3,24.1-26.3h0.5c0.3,0,0.5,0,0.8,0h0.5c8.6,0,23.1,3.4,24.1,26.3c0,0.2,0,0.4,0,0.6c0.7,6.8,0.6,26.8-8.5,36.9
			c-3.9,4.4-9.3,6.6-16.4,6.7c-0.1,0-0.2,0-0.3,0c-7.1-0.1-12.5-2.3-16.5-6.7C341.984,73.5,341.884,53.6,342.584,46.8z"/>
		<path style="fill:#3C92CA;" d="M123.684,110.1c0.2,0,0.4,0,0.6,0c0.1,0,0.4,0,0.5,0c0.2,0,0.5,0,0.7,0
			c12.4-0.3,22.9-4.9,30.5-13.4c16-18,13.7-48,13.3-51.8c-1.6-33.1-24.7-44.9-43.9-44.9c-0.3,0-0.6,0-0.9,0c-0.2,0-0.5,0-0.9,0
			c-19.2,0-42.3,11.8-43.9,44.9c-0.4,3.7-2.7,33.8,13.3,51.8C100.684,105.3,111.284,109.9,123.684,110.1z M99.584,46.8
			c0-0.2,0-0.4,0-0.6c1-22.9,15.6-26.3,24.1-26.3h0.5c0.3,0,0.5,0,0.8,0h0.5c8.6,0,23.1,3.4,24.1,26.3c0,0.2,0,0.4,0,0.6
			c0,0.2,2.3,24.7-8.4,36.8c-3.9,4.4-9.3,6.6-16.5,6.7c-0.1,0-0.2,0-0.3,0c-7.1-0.1-12.5-2.3-16.4-6.7
			C98.984,73.5,98.784,53.6,99.584,46.8z"/>
		<path style="fill:#3C92CA;" d="M245.084,110.1c0.2,0,0.5,0,0.7,0c0.1,0,0.4,0,0.5,0c0.2,0,0.4,0,0.6,0c12.5-0.3,23-4.9,30.6-13.4
			c16-18,13.7-48,13.3-51.8c-1.6-33.1-24.7-44.9-43.9-44.9c-0.3,0-0.6,0-0.9,0c-0.2,0-0.5,0-0.9,0c-19.2,0-42.3,11.8-43.9,44.9
			c-0.4,3.7-2.7,33.8,13.3,51.8C222.184,105.2,232.684,109.9,245.084,110.1z M221.084,46.8c0-0.2,0-0.4,0-0.6
			c1.1-22.9,15.6-26.3,24.1-26.3h0.5c0.3,0,0.5,0,0.8,0h0.5c8.6,0,23.1,3.4,24.1,26.3c0,0.2,0,0.4,0,0.6c0,0.2,2.3,24.7-8.4,36.8
			c-3.9,4.4-9.3,6.6-16.5,6.7c-0.1,0-0.2,0-0.3,0c-7.1-0.1-12.5-2.3-16.5-6.7C220.484,73.5,220.384,53.6,221.084,46.8z"/>
	</g>
</g>
<g>
</g>
<g>
</g>
<g>
</g>
<g>
</g>
<g>
</g>
<g>
</g>
<g>
</g>
<g>
</g>
<g>
</g>
<g>
</g>
<g>
</g>
<g>
</g>
<g>
</g>
<g>
</g>
<g>
</g>
</svg>
