<?xml version="1.0" encoding="iso-8859-1"?>
<!-- Generator: Adobe Illustrator 19.0.0, SVG Export Plug-In . SVG Version: 6.00 Build 0)  -->
<svg version="1.1" id="Layer_1" xmlns="http://www.w3.org/2000/svg" xmlns:xlink="http://www.w3.org/1999/xlink" x="0px" y="0px"
	 viewBox="0 0 492.025 492.025" style="enable-background:new 0 0 492.025 492.025;" xml:space="preserve">
<g>
	<g>
		<path style="fill:#3C92CA;" d="M334.513,92.225c1.9,1.9,4.5,2.9,7,2.9s5.1-1,7-2.9c3.9-3.9,3.9-10.1,0-14l-20.7-20.7h68.9
			c41.4,0,75.1,33.7,75.1,75.1v44.4c0,5.5,4.4,9.9,9.9,9.9s9.9-4.4,9.9-9.9v-44.5c0-52.3-42.6-94.9-94.9-94.9h-68.9l20.7-20.7
			c3.9-3.9,3.9-10.1,0-14s-10.1-3.9-14,0l-37.6,37.6c-3.9,3.9-3.9,10.1,0,14L334.513,92.225z"/>
		<path style="fill:#2C2F33;" d="M263.313,492.025h217.4c5.5,0,9.9-4.4,9.9-9.9v-217.5c0-5.5-4.4-9.9-9.9-9.9h-217.4
			c-5.5,0-9.9,4.4-9.9,9.9v217.4C253.413,487.525,257.813,492.025,263.313,492.025z M273.213,274.525h197.6v197.6h-197.6V274.525z"
			/>
		<path style="fill:#3C92CA;" d="M10.313,305.125c-5.5,0-9.9,4.4-9.9,9.9v44.5c0,52.3,42.6,94.9,94.9,94.9h68.9l-20.7,20.7
			c-3.9,3.9-3.9,10.1,0,14c1.9,1.9,4.5,2.9,7,2.9s5.1-1,7-2.9l37.6-37.6c3.9-3.9,3.9-10.1,0-14l-37.6-37.6c-3.9-3.9-10.1-3.9-14,0
			s-3.9,10.1,0,14l20.7,20.7h-68.9c-41.4,0-75.1-33.7-75.1-75.1v-44.5C20.213,309.525,15.813,305.125,10.313,305.125z"/>
		<path style="fill:#2C2F33;" d="M1.413,9.925v217.4c0,5.5,4.4,9.9,9.9,9.9h217.4c5.5,0,9.9-4.4,9.9-9.9V9.925
			c0-5.5-4.4-9.9-9.9-9.9h-217.4C5.813,0.025,1.413,4.525,1.413,9.925z M21.213,19.825h197.6v197.6h-197.6
			C21.213,217.425,21.213,19.825,21.213,19.825z"/>
	</g>
</g>
<g>
</g>
<g>
</g>
<g>
</g>
<g>
</g>
<g>
</g>
<g>
</g>
<g>
</g>
<g>
</g>
<g>
</g>
<g>
</g>
<g>
</g>
<g>
</g>
<g>
</g>
<g>
</g>
<g>
</g>
</svg>
