<?xml version="1.0" encoding="iso-8859-1"?>
<!-- Generator: Adobe Illustrator 19.0.0, SVG Export Plug-In . SVG Version: 6.00 Build 0)  -->
<svg version="1.1" id="Layer_1" xmlns="http://www.w3.org/2000/svg" xmlns:xlink="http://www.w3.org/1999/xlink" x="0px" y="0px"
	 viewBox="0 0 489.9 489.9" style="enable-background:new 0 0 489.9 489.9;" xml:space="preserve">
<g>
	<g>
		<path style="fill:#2C2F33;" d="M203.1,2h-175C12.6,2,0,14.6,0,30.1v125.7c0,15.5,12.6,28.1,28.1,28.1h77.6v25.5H80.3
			c-5.5,0-9.9,4.4-9.9,9.9s4.4,9.9,9.9,9.9h70.4c5.5,0,9.9-4.4,9.9-9.9s-4.4-9.9-9.9-9.9h-25.3v-25.5H203
			c15.5,0,28.1-12.6,28.1-28.1V30C231.1,14.6,218.5,2,203.1,2z M211.3,155.7c0,4.5-3.7,8.3-8.3,8.3H28c-4.6,0-8.3-3.7-8.3-8.3V30
			c0-4.5,3.7-8.3,8.3-8.3h175c4.6,0,8.3,3.7,8.3,8.3V155.7z"/>
		<path style="fill:#2C2F33;" d="M461.8,260.7h-175c-15.5,0-28.1,12.6-28.1,28.1v125.7c0,15.5,12.6,28.1,28.1,28.1h77.6v25.5h-25.3
			c-5.5,0-9.9,4.4-9.9,9.9s4.4,9.9,9.9,9.9h70.4c5.5,0,9.9-4.4,9.9-9.9s-4.4-9.9-9.9-9.9h-25.3v-25.5h77.6
			c15.5,0,28.1-12.6,28.1-28.1V288.7C489.8,273.2,477.2,260.7,461.8,260.7z M470,414.4c0,4.5-3.7,8.3-8.3,8.3h-175
			c-4.6,0-8.3-3.7-8.3-8.3V288.7c0-4.5,3.7-8.3,8.3-8.3h175c4.5,0,8.3,3.7,8.3,8.3V414.4z"/>
		<path style="fill:#3C92CA;" d="M374.2,83h-95.8c-5.5,0-9.9,4.4-9.9,9.9s4.4,9.9,9.9,9.9h85.9v94.7l-14.6-14.6
			c-3.9-3.9-10.1-3.9-14,0s-3.9,10.1,0,14l31.5,31.5c1.9,1.9,4.5,2.9,7,2.9s5.1-1,7-2.9l31.5-31.5c3.9-3.9,3.9-10.1,0-14
			s-10.1-3.9-14,0l-14.6,14.6V92.9C384.1,87.4,379.7,83,374.2,83z"/>
		<path style="fill:#3C92CA;" d="M211.4,392.3h-85.9v-94.7l14.6,14.6c1.9,1.9,4.5,2.9,7,2.9s5.1-1,7-2.9c3.9-3.9,3.9-10.1,0-14
			l-31.5-31.5c-3.9-3.9-10.1-3.9-14,0l-31.5,31.5c-3.9,3.9-3.9,10.1,0,14c3.9,3.9,10.1,3.9,14,0l14.6-14.6v104.6
			c0,5.5,4.4,9.9,9.9,9.9h95.8c5.5,0,9.9-4.4,9.9-9.9C221.3,396.7,216.8,392.3,211.4,392.3z"/>
	</g>
</g>
<g>
</g>
<g>
</g>
<g>
</g>
<g>
</g>
<g>
</g>
<g>
</g>
<g>
</g>
<g>
</g>
<g>
</g>
<g>
</g>
<g>
</g>
<g>
</g>
<g>
</g>
<g>
</g>
<g>
</g>
</svg>
