<?xml version="1.0" encoding="iso-8859-1"?>
<!-- Generator: Adobe Illustrator 19.0.0, SVG Export Plug-In . SVG Version: 6.00 Build 0)  -->
<svg version="1.1" id="Layer_1" xmlns="http://www.w3.org/2000/svg" xmlns:xlink="http://www.w3.org/1999/xlink" x="0px" y="0px"
	 viewBox="0 0 489.9 489.9" style="enable-background:new 0 0 489.9 489.9;" xml:space="preserve">
<g>
	<g>
		<path style="fill:#3C92CA;" d="M90.3,96.956c-3.8,3.9-3.8,10.2,0.2,14c3.9,3.8,10.2,3.8,14-0.2c35.8-36.7,83.8-57.2,135-57.8
			c50-0.6,97.4,18,133.7,52.2l-18.2,0.2c-5.5,0.1-9.8,4.5-9.8,10c0.1,5.4,4.5,9.8,9.9,9.8h0.1l42.2-0.5c5.5-0.1,9.8-4.5,9.8-10
			l-0.4-42.1c-0.1-5.4-4.5-9.8-9.9-9.8h-0.1c-5.5,0.1-9.8,4.5-9.8,10l0.2,18.4c-40.1-38-92.6-58.6-147.9-58
			C182.7,33.956,129.8,56.556,90.3,96.956z"/>
		<path style="fill:#3C92CA;" d="M378.9,379.056c-35.8,36.7-83.8,57.2-135,57.8c-50,0.6-97.4-18-133.7-52.2l18.2-0.2
			c5.5-0.1,9.8-4.5,9.8-10c-0.1-5.4-4.5-9.8-9.9-9.8h-0.1l-42.2,0.5c-5.5,0.1-9.8,4.5-9.8,10l0.5,42.2c0.1,5.4,4.5,9.8,9.9,9.8h0.1
			c5.5-0.1,9.8-4.5,9.8-10l-0.2-18.4c39.5,37.4,90.9,58,145.4,58c0.8,0,1.7,0,2.5,0c56.5-0.7,109.5-23.3,149-63.7
			c3.8-3.9,3.8-10.2-0.2-14C389,375.056,382.8,375.156,378.9,379.056z"/>
		<path style="fill:#2C2F33;" d="M78.2,240.256c0-3.3-1.7-6.4-4.4-8.2c-1.8-1.2-2.8-3.2-2.8-5.3v-36.1c0-12.5,10.1-22.6,22.6-22.6
			h7.8c12.5,0,22.6,10.1,22.6,22.6v36.1c0,2.1-1.1,4.1-2.8,5.3c-2.8,1.8-4.4,4.9-4.4,8.2v34.8c0,4.4,2.5,8.4,6.5,10.3
			c4.5,2.2,27.8,14,49.4,31.7c1.7,1.4,2.7,3.6,2.7,5.9v24.7c0,5.5,4.4,9.9,9.9,9.9s9.9-4.4,9.9-9.9v-24.7c0-8.2-3.6-15.9-10-21.2
			c-18.9-15.6-39.2-26.9-48.6-31.8v-25.1c4.6-4.8,7.3-11.3,7.3-18.1v-36.1c0-23.4-19-42.4-42.4-42.4h-7.8c-23.4,0-42.4,19-42.4,42.4
			v36.1c0,6.8,2.6,13.3,7.3,18.1v25.1c-9.5,4.9-29.7,16.3-48.6,31.8c-6.3,5.2-10,12.9-10,21.2v24.7c0,5.5,4.4,9.9,9.9,9.9
			s9.9-4.4,9.9-9.9v-24.7c0-2.3,1-4.4,2.7-5.9c21.5-17.7,44.9-29.5,49.4-31.7c3.9-1.9,6.5-6,6.5-10.3v-34.8H78.2z"/>
		<path style="fill:#2C2F33;" d="M479.9,301.856c-18.9-15.6-39.2-26.9-48.6-31.8v-25.1c4.6-4.8,7.3-11.3,7.3-18.1v-36.1
			c0-23.4-19-42.4-42.4-42.4h-7.8c-23.4,0-42.4,19-42.4,42.4v36.1c0,6.8,2.6,13.3,7.3,18.1v25c-9.5,4.9-29.7,16.3-48.6,31.8
			c-6.3,5.2-10,12.9-10,21.2v24.7c0,5.5,4.4,9.9,9.9,9.9s9.9-4.4,9.9-9.9v-24.7c0-2.3,1-4.4,2.7-5.9c21.5-17.7,44.9-29.5,49.4-31.7
			c3.9-1.9,6.4-6,6.4-10.3v-34.8c0-3.3-1.7-6.4-4.4-8.2c-1.8-1.2-2.8-3.2-2.8-5.3v-36.1c0-12.5,10.1-22.6,22.6-22.6h7.8
			c12.5,0,22.6,10.1,22.6,22.6v36.1c0,2.1-1.1,4.1-2.8,5.3c-2.8,1.8-4.4,4.9-4.4,8.2v34.8c0,4.4,2.5,8.4,6.4,10.3
			c4.5,2.2,27.9,14,49.4,31.7c1.7,1.4,2.7,3.6,2.7,5.9v24.7c0,5.5,4.4,9.9,9.9,9.9s9.9-4.4,9.9-9.9v-24.7
			C489.8,314.756,486.2,307.056,479.9,301.856z"/>
	</g>
</g>
<g>
</g>
<g>
</g>
<g>
</g>
<g>
</g>
<g>
</g>
<g>
</g>
<g>
</g>
<g>
</g>
<g>
</g>
<g>
</g>
<g>
</g>
<g>
</g>
<g>
</g>
<g>
</g>
<g>
</g>
</svg>
