<?xml version="1.0" encoding="iso-8859-1"?>
<!-- Generator: Adobe Illustrator 19.0.0, SVG Export Plug-In . SVG Version: 6.00 Build 0)  -->
<svg version="1.1" id="Layer_1" xmlns="http://www.w3.org/2000/svg" xmlns:xlink="http://www.w3.org/1999/xlink" x="0px" y="0px"
	 viewBox="0 0 489.4 489.4" style="enable-background:new 0 0 489.4 489.4;" xml:space="preserve">
<g>
	<g>
		<path style="fill:#3C92CA;" d="M244.7,489.4c5.5,0,9.9-4.4,9.9-9.9V119.4l73.9,73.9c3.9,3.9,10.1,3.9,14,0s3.9-10.1,0-14
			l-90.8-90.8c-1.9-1.9-4.5-2.9-7-2.9s-5.1,1-7,2.9l-90.8,90.8c-3.9,3.9-3.9,10.1,0,14s10.1,3.9,14,0l73.9-73.9v360.1
			C234.8,485,239.2,489.4,244.7,489.4z"/>
		<path style="fill:#2C2F33;" d="M450.7,122.5c5.5,0,9.9-4.4,9.9-9.9V9.9c0-5.5-4.4-9.9-9.9-9.9h-412c-5.5,0-9.9,4.4-9.9,9.9v102.8
			c0,5.5,4.4,9.9,9.9,9.9s9.9-4.4,9.9-9.9V19.8h392.2v92.9C440.8,118.1,445.2,122.5,450.7,122.5z"/>
	</g>
</g>
<g>
</g>
<g>
</g>
<g>
</g>
<g>
</g>
<g>
</g>
<g>
</g>
<g>
</g>
<g>
</g>
<g>
</g>
<g>
</g>
<g>
</g>
<g>
</g>
<g>
</g>
<g>
</g>
<g>
</g>
</svg>
