<?xml version="1.0" encoding="iso-8859-1"?>
<!-- Generator: Adobe Illustrator 19.0.0, SVG Export Plug-In . SVG Version: 6.00 Build 0)  -->
<svg version="1.1" id="Layer_1" xmlns="http://www.w3.org/2000/svg" xmlns:xlink="http://www.w3.org/1999/xlink" x="0px" y="0px"
	 viewBox="0 0 490.5 490.5" style="enable-background:new 0 0 490.5 490.5;" xml:space="preserve">
<g>
	<g>
		<path style="fill:#2C2F33;" d="M19.85,405.2c5.5,0,9.9-4.4,9.9-9.9V345c0-7.7,3.4-15,9.3-19.8c44.7-36.7,93.2-61.2,102.5-65.7
			c4.6-2.2,7.4-6.8,7.4-11.8V177c0-3.3-1.7-6.4-4.4-8.2c-6.5-4.3-10.4-11.5-10.4-19.3V76c0-31,25.2-56.2,56.2-56.2h15.8
			c31,0,56.2,25.2,56.2,56.2v73.3c0,7.8-3.9,15-10.4,19.3c-2.8,1.8-4.4,4.9-4.4,8.2v70.7c0,5.5,4.4,9.9,9.9,9.9s9.9-4.4,9.9-9.9
			v-65.9c9.3-8.1,14.8-19.9,14.8-32.4V76c0-41.9-34.1-76-76-76h-15.9c-41.9,0-76,34.1-76,76v73.3c0,12.5,5.4,24.3,14.8,32.4v61.8
			c-15.2,7.7-60.5,31.8-102.6,66.4c-10.5,8.6-16.5,21.4-16.5,35.1v50.3C9.95,400.7,14.35,405.2,19.85,405.2z"/>
		<path style="fill:#2C2F33;" d="M222.45,258c-5.5,0-9.9,4.4-9.9,9.9c0,4.2-1.8,7.9-4.7,10.6c-0.6,0.4-1.2,0.8-1.7,1.4
			c-2.3,1.6-5.1,2.5-8,2.5c-7.9,0-14.4-6.5-14.4-14.4c0-5.5-4.4-9.9-9.9-9.9s-9.9,4.4-9.9,9.9c0,8.1,2.8,15.5,7.6,21.4l-7.3,169.8
			c-0.1,2.9,1.1,5.8,3.3,7.8l23.3,21c1.9,1.7,4.3,2.5,6.6,2.5c2.4,0,4.8-0.9,6.6-2.6l23.6-21.4c2.2-2,3.4-4.8,3.3-7.8l-7.6-167.9
			c5.6-6.1,9-14.2,9-23.1C232.35,262.4,227.95,258,222.45,258z M197.35,467.3l-13.2-11.9l6.7-154.1c2.4,0.5,4.8,0.8,7.3,0.8
			c2,0,3.9-0.2,5.8-0.5l6.9,153.5L197.35,467.3z"/>
		<path style="fill:#3C92CA;" d="M401.65,314.8h69c5.5,0,9.9-4.4,9.9-9.9c0-19.3-7-37.8-19.8-52.2c-15-17-36.5-26.7-59.2-26.7
			c-5.5,0-9.9,4.4-9.9,9.9v69C391.75,310.4,396.15,314.8,401.65,314.8z M411.55,246.6c13.2,2.2,25.4,9,34.4,19.2
			c7.3,8.3,12.1,18.4,14,29.2h-48.4V246.6z"/>
		<path style="fill:#3C92CA;" d="M362.75,440.5c54,0,97.9-43.9,97.9-97.9c0-5.5-4.4-9.9-9.9-9.9h-78.1v-78.1c0-5.5-4.4-9.9-9.9-9.9
			c-54,0-97.9,43.9-97.9,97.9S308.75,440.5,362.75,440.5z M352.85,265.2v77.4c0,5.5,4.4,9.9,9.9,9.9h77.4
			c-4.9,38.4-37.7,68.2-77.4,68.2c-43,0-78.1-35-78.1-78.1C284.65,303,314.45,270.1,352.85,265.2z"/>
	</g>
</g>
<g>
</g>
<g>
</g>
<g>
</g>
<g>
</g>
<g>
</g>
<g>
</g>
<g>
</g>
<g>
</g>
<g>
</g>
<g>
</g>
<g>
</g>
<g>
</g>
<g>
</g>
<g>
</g>
<g>
</g>
</svg>
