<?xml version="1.0" encoding="iso-8859-1"?>
<!-- Generator: Adobe Illustrator 19.0.0, SVG Export Plug-In . SVG Version: 6.00 Build 0)  -->
<svg version="1.1" id="Layer_1" xmlns="http://www.w3.org/2000/svg" xmlns:xlink="http://www.w3.org/1999/xlink" x="0px" y="0px"
	 viewBox="0 0 492.8 492.8" style="enable-background:new 0 0 492.8 492.8;" xml:space="preserve">
<g>
	<g>
		<path style="fill:#3C92CA;" d="M362,266.95h47.3c5.6,17.1,21.7,29.4,40.7,29.4c23.6,0,42.8-19.2,42.8-42.8s-19.2-42.8-42.8-42.8
			c-21.4,0-39.2,15.9-42.3,36.5H362c-5.5,0-9.9,4.4-9.9,9.9C352.1,262.55,356.6,266.95,362,266.95z M450,230.55
			c12.7,0,23,10.3,23,23c0,12.7-10.3,23-23,23s-23-10.3-23-23C427,240.85,437.3,230.55,450,230.55z"/>
		<path style="fill:#3C92CA;" d="M321.8,176.05c1.9,1.9,4.5,2.9,7,2.9s5.1-1,7-2.9l30.8-30.8c7,4.7,15.2,7.2,23.8,7.2
			c11.4,0,22.2-4.5,30.3-12.5c16.7-16.7,16.7-43.9,0-60.6c-8.1-8.1-18.9-12.5-30.3-12.5s-22.2,4.5-30.3,12.5
			c-13.9,13.9-16.2,35.1-6.9,51.4l-31.3,31.3C318,165.85,318,172.15,321.8,176.05z M374.1,93.25c4.4-4.4,10.1-6.7,16.3-6.7
			c6.2,0,11.9,2.4,16.3,6.7c9,9,9,23.6,0,32.6c-4.4,4.4-10.1,6.8-16.3,6.8c-6.2,0-11.9-2.4-16.3-6.8
			C365.1,116.85,365.1,102.25,374.1,93.25z"/>
		<path style="fill:#3C92CA;" d="M233.3,90.75v47.5c0,5.5,4.4,9.9,9.9,9.9s9.9-4.4,9.9-9.9v-46c20.4-3.2,36.1-20.9,36.1-42.3
			c0-23.6-19.2-42.8-42.8-42.8s-42.8,19.2-42.8,42.8C203.6,69.05,216.1,85.15,233.3,90.75z M246.4,26.95c12.7,0,23,10.3,23,23
			s-10.3,23-23,23c-12.7,0-23-10.3-23-23S233.7,26.95,246.4,26.95z"/>
		<path style="fill:#3C92CA;" d="M42.8,296.45c18.9,0,35-12.4,40.7-29.4h43.4c5.5,0,9.9-4.4,9.9-9.9c0-5.5-4.4-9.9-9.9-9.9H85.1
			c-3.1-20.6-20.9-36.5-42.3-36.5c-23.6,0-42.8,19.2-42.8,42.8C-0.1,277.15,19.2,296.45,42.8,296.45z M42.8,230.55
			c12.7,0,23,10.3,23,23c0,12.7-10.3,23-23,23s-23-10.3-23-23C19.7,240.85,30.1,230.55,42.8,230.55z"/>
		<path style="fill:#3C92CA;" d="M102.4,152.45c7.7,0,15.1-2.1,21.6-5.9l31.3,31.3c1.9,1.9,4.5,2.9,7,2.9s5.1-1,7-2.9
			c3.9-3.9,3.9-10.1,0-14l-31-31c10.7-16.6,8.9-39-5.7-53.6c-8.1-8.1-18.9-12.5-30.3-12.5s-22.2,4.5-30.3,12.5
			c-16.7,16.7-16.7,43.9,0,60.6C80.2,147.95,91,152.45,102.4,152.45z M86.1,93.25c4.4-4.4,10.1-6.7,16.3-6.7s11.9,2.4,16.3,6.7
			c9,9,9,23.6,0,32.6c-4.4,4.4-10.1,6.8-16.3,6.8c-6.2,0-11.9-2.4-16.3-6.8C77.1,116.85,77.1,102.25,86.1,93.25z"/>
		<path style="fill:#2C2F33;" d="M192.7,318.85v43c-12.6,6.4-44.9,24-75,48.7c-8.4,6.9-13.2,17.1-13.2,28v37.2
			c0,5.5,4.4,9.9,9.9,9.9s9.9-4.4,9.9-9.9v-37.2c0-4.9,2.2-9.6,6-12.7c32.9-27,68.5-45,75.3-48.3c4.3-2.1,6.9-6.3,6.9-11.1v-52.3
			c0-3.3-1.7-6.4-4.4-8.2c-4.1-2.7-6.5-7.3-6.5-12.1v-54.3c0-21.5,17.5-39,39-39h11.7c21.5,0,39,17.5,39,39v54.3
			c0,4.9-2.4,9.4-6.5,12.1c-2.8,1.8-4.4,4.9-4.4,8.2v52.3c0,4.7,2.7,9,6.9,11.1c6.8,3.3,42.4,21.3,75.3,48.3c3.8,3.1,6,7.7,6,12.7
			v37.2c0,5.5,4.4,9.9,9.9,9.9s9.9-4.4,9.9-9.9v-37.2c0-10.9-4.8-21.1-13.2-28c-30.1-24.8-62.4-42.3-75-48.7v-43
			c6.9-6.4,10.9-15.5,10.9-25.1v-54.3c0-32.4-26.4-58.8-58.8-58.8h-11.7c-32.4,0-58.8,26.4-58.8,58.8v54.3
			C181.8,303.35,185.8,312.45,192.7,318.85z"/>
	</g>
</g>
<g>
</g>
<g>
</g>
<g>
</g>
<g>
</g>
<g>
</g>
<g>
</g>
<g>
</g>
<g>
</g>
<g>
</g>
<g>
</g>
<g>
</g>
<g>
</g>
<g>
</g>
<g>
</g>
<g>
</g>
</svg>
