<?xml version="1.0" encoding="iso-8859-1"?>
<!-- Generator: Adobe Illustrator 19.0.0, SVG Export Plug-In . SVG Version: 6.00 Build 0)  -->
<svg version="1.1" id="Layer_1" xmlns="http://www.w3.org/2000/svg" xmlns:xlink="http://www.w3.org/1999/xlink" x="0px" y="0px"
	 viewBox="0 0 490.2 490.2" style="enable-background:new 0 0 490.2 490.2;" xml:space="preserve">
<g>
	<g>
		<path style="fill:#2C2F33;" d="M123.1,247.2v-61.3c0-3.3-1.7-6.4-4.4-8.2c-5.3-3.5-8.4-9.3-8.4-15.6V98.5
			c0-26.1,21.3-47.4,47.4-47.4h13.7c26.1,0,47.4,21.3,47.4,47.4v63.6c0,6.3-3.1,12.1-8.4,15.6c-2.8,1.8-4.4,4.9-4.4,8.2v61.3
			c0,4.8,2.8,9.3,7.1,11.4c8,3.9,49.9,25.1,88.6,56.8c4.8,4,7.6,9.9,7.6,16.2v43.6c0,5.5,4.4,9.9,9.9,9.9s9.9-4.4,9.9-9.9v-43.6
			c0-12.3-5.4-23.7-14.8-31.5c-36-29.5-74.6-50.3-88.5-57.4v-52.2c8.1-7.3,12.8-17.6,12.8-28.7V98.2c0-37.1-30.1-67.2-67.2-67.2
			h-13.7c-37.1,0-67.2,30.1-67.2,67.2v63.6c0,11,4.7,21.4,12.8,28.7v52.2c-13.9,7.1-52.6,27.8-88.5,57.4C5.4,307.8,0,319.3,0,331.6
			v43.6c0,5.5,4.4,9.9,9.9,9.9s9.9-4.4,9.9-9.9v-43.6c0-6.3,2.8-12.2,7.6-16.2c38.7-31.8,80.6-52.9,88.6-56.8
			C120.4,256.5,123.1,252.1,123.1,247.2z"/>
		<path style="fill:#2C2F33;" d="M185.6,254.9c-5.5,0-9.9,4.4-9.9,9.9c0,3.2-1.4,6.1-3.6,8.2c-0.5,0.3-0.9,0.7-1.3,1.1
			c-1.8,1.2-3.9,1.9-6.2,1.9c-6.2,0-11.2-5-11.2-11.2c0-5.5-4.4-9.9-9.9-9.9s-9.9,4.4-9.9,9.9c0,7.2,2.5,13.7,6.5,19l-6.3,146.9
			c-0.1,2.9,1.1,5.8,3.3,7.8l20.2,18.2c1.9,1.7,4.3,2.5,6.6,2.5c2.4,0,4.8-0.9,6.6-2.6l20.5-18.5c2.2-2,3.4-4.8,3.3-7.8l-6.6-145.1
			c4.8-5.5,7.8-12.6,7.8-20.5C195.5,259.3,191.1,254.9,185.6,254.9z M163.9,436l-10.1-9.1l5.7-131.5c1.7,0.3,3.4,0.5,5.1,0.5
			c1.3,0,2.6-0.1,3.8-0.3l5.9,131.1L163.9,436z"/>
		<path style="fill:#3C92CA;" d="M490.2,162.5V74.4c0-18.6-15.1-33.7-33.7-33.7H312.3c-18.6,0-33.7,15.1-33.7,33.7v88.1
			c0,18.6,15.1,33.7,33.7,33.7h8.7v32.2c0,4,2.4,7.5,6,9.1c1.3,0.5,2.6,0.8,3.9,0.8c2.5,0,5-0.9,6.9-2.8l41-39.3h77.8
			C475.1,196.2,490.2,181.1,490.2,162.5z M374.8,176.4c-2.6,0-5,1-6.8,2.8l-27.2,26v-18.9c0-5.5-4.4-9.9-9.9-9.9h-18.6
			c-7.6,0-13.9-6.2-13.9-13.9V74.4c0-7.6,6.2-13.9,13.9-13.9h144.3c7.6,0,13.9,6.2,13.9,13.9v88.1c0,7.6-6.2,13.9-13.9,13.9H374.8
			L374.8,176.4z"/>
		<path style="fill:#3C92CA;" d="M435,91.2H333.8c-5.5,0-9.9,4.4-9.9,9.9s4.4,9.9,9.9,9.9H435c5.5,0,9.9-4.4,9.9-9.9
			C444.9,95.7,440.5,91.2,435,91.2z"/>
		<path style="fill:#3C92CA;" d="M435,127.3H333.8c-5.5,0-9.9,4.4-9.9,9.9s4.4,9.9,9.9,9.9H435c5.5,0,9.9-4.4,9.9-9.9
			S440.5,127.3,435,127.3z"/>
	</g>
</g>
<g>
</g>
<g>
</g>
<g>
</g>
<g>
</g>
<g>
</g>
<g>
</g>
<g>
</g>
<g>
</g>
<g>
</g>
<g>
</g>
<g>
</g>
<g>
</g>
<g>
</g>
<g>
</g>
<g>
</g>
</svg>
