<?xml version="1.0" encoding="iso-8859-1"?>
<!-- Generator: Adobe Illustrator 19.0.0, SVG Export Plug-In . SVG Version: 6.00 Build 0)  -->
<svg version="1.1" id="Layer_1" xmlns="http://www.w3.org/2000/svg" xmlns:xlink="http://www.w3.org/1999/xlink" x="0px" y="0px"
	 viewBox="0 0 490.1 490.1" style="enable-background:new 0 0 490.1 490.1;" xml:space="preserve">
<g>
	<g>
		<path style="fill:#2C2F33;" d="M57.65,424.5c5.5,0,9.9-4.4,9.9-9.9v-52.8c0-8.3,3.6-16,10-21.2c47-38.6,98-64.4,107.7-69.1
			c4.6-2.3,7.5-6.8,7.5-12v-74.3c0-3.3-1.7-6.4-4.4-8.2c-7-4.6-11.1-12.4-11.1-20.7v-77c0-32.8,26.7-59.5,59.5-59.5h16.6
			c32.8,0,59.5,26.7,59.5,59.5v77c0,8.3-4.2,16-11.1,20.7c-2.8,1.8-4.4,4.9-4.4,8.2v74.3c0,5.1,2.9,9.7,7.5,12
			c9.7,4.8,60.7,30.5,107.7,69.1c6.3,5.2,10,12.9,10,21.2v52.8c0,5.5,4.4,9.9,9.9,9.9s9.9-4.4,9.9-9.9v-52.8
			c0-14.2-6.3-27.5-17.2-36.5c-44.4-36.5-92.2-61.9-108-69.8v-65.4c9.8-8.4,15.5-20.7,15.5-33.8v-77c0-43.7-35.6-79.3-79.3-79.3
			h-16.6c-43.7,0-79.3,35.6-79.3,79.3v77c0,13.1,5.7,25.4,15.5,33.8v65.4c-15.7,7.9-63.6,33.3-108,69.8c-10.9,9-17.2,22.3-17.2,36.5
			v52.8C47.75,420.1,52.25,424.5,57.65,424.5z"/>
		<path style="fill:#3C92CA;" d="M330.05,388.7c0-13.2-5.1-25.6-14.5-35c-9.3-9.3-21.8-14.5-35-14.5s-25.6,5.2-35,14.5l-0.6,0.6
			l-0.6-0.6c-9.4-9.4-21.8-14.5-35-14.5s-25.6,5.1-34.9,14.5c-9.3,9.3-14.5,21.8-14.5,35s5.2,25.6,14.5,35l63.4,63.4l0.1,0.1
			c1.9,1.9,4.4,2.9,7,2.9l0,0c2.6,0,5.1-1,7-2.9l63.5-63.5C324.95,414.4,330.05,401.9,330.05,388.7z M301.55,409.7l-56.5,56.5
			l-56.6-56.6c-5.6-5.6-8.7-13.1-8.7-21s3.1-15.4,8.7-21c5.6-5.6,13-8.7,20.9-8.7s15.4,3.1,21,8.7l7.6,7.6c3.9,3.9,10.1,3.9,14,0
			l7.6-7.6c5.6-5.6,13.1-8.7,21-8.7s15.3,3.1,20.9,8.7s8.7,13,8.7,21C310.25,396.6,307.15,404.1,301.55,409.7z"/>
	</g>
</g>
<g>
</g>
<g>
</g>
<g>
</g>
<g>
</g>
<g>
</g>
<g>
</g>
<g>
</g>
<g>
</g>
<g>
</g>
<g>
</g>
<g>
</g>
<g>
</g>
<g>
</g>
<g>
</g>
<g>
</g>
</svg>
