<?xml version="1.0" encoding="iso-8859-1"?>
<!-- Generator: Adobe Illustrator 19.0.0, SVG Export Plug-In . SVG Version: 6.00 Build 0)  -->
<svg version="1.1" id="Layer_1" xmlns="http://www.w3.org/2000/svg" xmlns:xlink="http://www.w3.org/1999/xlink" x="0px" y="0px"
	 viewBox="0 0 490 490" style="enable-background:new 0 0 490 490;" xml:space="preserve">
<g>
	<g>
		<path style="fill:#3C92CA;" d="M477.6,354.65c-27.5-22.6-57.1-38.8-69-44.9v-38.9c6.4-6.1,10.1-14.5,10.1-23.5v-50.1
			c0-30.4-24.7-55.1-55.1-55.1h-10.8c-30.4,0-55.1,24.7-55.1,55.1v50.1c0,9,3.7,17.4,10.1,23.5v34.8c0,5.5,4.4,9.9,9.9,9.9
			s9.9-4.4,9.9-9.9v-39.5c0-3.3-1.7-6.4-4.4-8.2c-3.6-2.4-5.7-6.3-5.7-10.6v-50.1c0-19.4,15.8-35.3,35.3-35.3h10.8
			c19.4,0,35.3,15.8,35.3,35.3v50.1c0,4.3-2.1,8.2-5.7,10.6c-2.8,1.8-4.4,4.9-4.4,8.2v48.4c0,4.6,2.7,8.9,6.8,10.9
			c6.3,3.1,39.1,19.7,69.4,44.5c3.3,2.7,5.2,6.8,5.2,11.1v34.4c0,5.5,4.4,9.9,9.9,9.9s9.9-4.4,9.9-9.9v-34.4
			C490,370.75,485.5,361.15,477.6,354.65z"/>
		<path style="fill:#737a82;" d="M174.6,64.65h-14c-37.7,0-68.4,30.7-68.4,68.4v64.9c0,11.2,4.8,21.8,13.1,29.2v53.4
			c-14.1,7.2-53.6,28.3-90.4,58.5c-9.4,7.8-14.9,19.4-14.9,31.9v44.5c0,5.5,4.4,9.9,9.9,9.9h315.6c5.5,0,9.9-4.4,9.9-9.9v-44.5
			c0-12.4-5.5-24.1-15.1-31.9c-36.8-30.2-76.3-51.4-90.4-58.5v-53.4c8.3-7.4,13.1-17.9,13.1-29.2v-65
			C243,95.25,212.3,64.65,174.6,64.65z M217.3,296.25c8.2,4,51,25.6,90.4,58c5,4.1,7.8,10.2,7.8,16.6v34.6H19.8v-34.5
			c0-6.5,2.9-12.6,7.8-16.6c39.5-32.4,82.2-54,90.4-58c4.4-2.2,7.2-6.6,7.2-11.5v-62.6c0-3.3-1.7-6.4-4.4-8.2
			c-5.4-3.6-8.7-9.6-8.7-16.1v-65c0-26.8,21.8-48.6,48.6-48.6h14c26.8,0,48.6,21.8,48.6,48.6v64.9c0,6.5-3.2,12.5-8.7,16.1
			c-2.8,1.8-4.4,4.9-4.4,8.2v62.6C210.1,289.65,212.9,294.15,217.3,296.25z"/>
	</g>
</g>
<g>
</g>
<g>
</g>
<g>
</g>
<g>
</g>
<g>
</g>
<g>
</g>
<g>
</g>
<g>
</g>
<g>
</g>
<g>
</g>
<g>
</g>
<g>
</g>
<g>
</g>
<g>
</g>
<g>
</g>
</svg>
