<?xml version="1.0" encoding="iso-8859-1"?>
<!-- Generator: Adobe Illustrator 19.0.0, SVG Export Plug-In . SVG Version: 6.00 Build 0)  -->
<svg version="1.1" id="Layer_1" xmlns="http://www.w3.org/2000/svg" xmlns:xlink="http://www.w3.org/1999/xlink" x="0px" y="0px"
	 viewBox="0 0 489.8 489.8" style="enable-background:new 0 0 489.8 489.8;" xml:space="preserve">
<g>
	<g>
		<path style="fill:#2C2F33;" d="M432,338.4c-46.4-38.1-96.4-64.6-112.5-72.7v-68.5c10.2-8.7,16.1-21.4,16.1-35V82.1
			c0-45.3-36.8-82.1-82.1-82.1h-17.3c-45.3,0-82.1,36.8-82.1,82.1v80.2c0,13.6,5.9,26.3,16.1,35v68.5
			c-16.1,8.1-66.1,34.6-112.5,72.7c-11.3,9.3-17.7,23-17.7,37.7v54.9c0,5.5,4.4,9.9,9.9,9.9c5.5,0,9.9-4.4,9.9-9.9v-54.9
			c0-8.7,3.8-16.9,10.5-22.4c49-40.2,102-67,112.2-72c4.7-2.3,7.5-6.9,7.5-12.1v-77.3c0-3.3-1.7-6.4-4.4-8.2
			c-7.3-4.9-11.7-13.1-11.7-21.8V82.1c0-34.4,28-62.3,62.3-62.3h17.3c34.4,0,62.3,28,62.3,62.3v80.2c0,8.8-4.4,17-11.7,21.8
			c-2.8,1.8-4.4,4.9-4.4,8.2v77.3c0,5.2,2.9,9.8,7.6,12.1c10.1,5,63.2,31.7,112.2,72c6.7,5.5,10.5,13.6,10.5,22.4V431
			c0,5.5,4.4,9.9,9.9,9.9s9.9-4.4,9.9-9.9v-54.9C449.8,361.4,443.3,347.7,432,338.4z"/>
		<path style="fill:#3C92CA;" d="M244.9,331.8c-5.5,0-9.9,4.4-9.9,9.9v59.2h-59.2c-5.5,0-9.9,4.4-9.9,9.9s4.4,9.9,9.9,9.9H235v59.2
			c0,5.5,4.4,9.9,9.9,9.9s9.9-4.4,9.9-9.9v-59.2H314c5.5,0,9.9-4.4,9.9-9.9s-4.4-9.9-9.9-9.9h-59.2v-59.2
			C254.8,336.2,250.4,331.8,244.9,331.8z"/>
	</g>
</g>
<g>
</g>
<g>
</g>
<g>
</g>
<g>
</g>
<g>
</g>
<g>
</g>
<g>
</g>
<g>
</g>
<g>
</g>
<g>
</g>
<g>
</g>
<g>
</g>
<g>
</g>
<g>
</g>
<g>
</g>
</svg>
