<?xml version="1.0" encoding="iso-8859-1"?>
<!-- Generator: Adobe Illustrator 19.0.0, SVG Export Plug-In . SVG Version: 6.00 Build 0)  -->
<svg version="1.1" id="Layer_1" xmlns="http://www.w3.org/2000/svg" xmlns:xlink="http://www.w3.org/1999/xlink" x="0px" y="0px"
	 viewBox="0 0 492.8 492.8" style="enable-background:new 0 0 492.8 492.8;" xml:space="preserve">
<g>
	<g>
		<path style="fill:#2C2F33;" d="M149.55,248.7v-71.1c0-3.3-1.7-6.4-4.4-8.2c-6.5-4.3-10.4-11.6-10.4-19.4V76.3
			c0-31.1,25.3-56.5,56.5-56.5h15.9c31.1,0,56.5,25.3,56.5,56.5V150c0,7.8-3.9,15.1-10.4,19.4c-2.8,1.8-4.4,4.9-4.4,8.2v71.1
			c0,5.5,4.4,9.9,9.9,9.9c5.5,0,9.9-4.4,9.9-9.9v-66.2c9.4-8.1,14.8-19.9,14.8-32.5V76.3c0-42.1-34.2-76.3-76.3-76.3h-15.9
			c-42.1,0-76.3,34.2-76.3,76.3V150c0,12.6,5.5,24.4,14.8,32.5v62.1c-15.3,7.7-60.8,31.9-103.1,66.7c-10.6,8.7-16.6,21.5-16.6,35.2
			V397c0,5.5,4.4,9.9,9.9,9.9s9.9-4.4,9.9-9.9v-50.5c0-7.8,3.4-15,9.4-19.9c44.9-36.9,93.6-61.5,102.9-66
			C146.65,258.4,149.55,253.7,149.55,248.7z"/>
		<path style="fill:#3C92CA;" d="M223.55,259.2c-5.5,0-9.9,4.4-9.9,9.9c0,4.2-1.8,8-4.7,10.7c-0.6,0.4-1.2,0.9-1.7,1.4
			c-2.3,1.6-5.1,2.5-8.1,2.5c-8,0-14.5-6.5-14.5-14.5c0-5.5-4.4-9.9-9.9-9.9s-9.9,4.4-9.9,9.9c0,8.1,2.9,15.6,7.6,21.5l-7.4,170.7
			c-0.1,2.9,1.1,5.8,3.3,7.8l23.4,21.1c1.9,1.7,4.3,2.5,6.6,2.5c2.4,0,4.8-0.9,6.6-2.6l23.8-21.5c2.2-2,3.4-4.8,3.3-7.8l-7.6-168.7
			c5.6-6.1,9.1-14.2,9.1-23.1C233.45,263.7,229.05,259.2,223.55,259.2z M198.35,469.5l-13.3-12l6.7-154.9c2.4,0.5,4.9,0.8,7.4,0.8
			c2,0,4-0.2,5.9-0.5l7,154.3L198.35,469.5z"/>
		<path style="fill:#3C92CA;" d="M403.55,316.2h69.3c5.5,0,9.9-4.4,9.9-9.9c0-19.3-7-38-19.8-52.5c-15-17-36.7-26.8-59.4-26.8
			c-5.5,0-9.9,4.4-9.9,9.9v69.3C393.65,311.8,398.15,316.2,403.55,316.2z M413.45,247.7c13.3,2.3,25.6,9,34.7,19.3
			c7.4,8.4,12.2,18.6,14.1,29.4h-48.8L413.45,247.7L413.45,247.7z"/>
		<path style="fill:#2C2F33;" d="M364.45,442.5c54.2,0,98.3-44.1,98.3-98.3c0-5.5-4.4-9.9-9.9-9.9h-78.5v-78.5
			c0-5.5-4.4-9.9-9.9-9.9c-54.2,0-98.3,44.1-98.3,98.3S310.25,442.5,364.45,442.5z M354.55,266.4v77.8c0,5.5,4.4,9.9,9.9,9.9h77.8
			c-4.9,38.6-37.9,68.6-77.8,68.6c-43.3,0-78.5-35.2-78.5-78.5C285.95,304.3,315.95,271.3,354.55,266.4z"/>
	</g>
</g>
<g>
</g>
<g>
</g>
<g>
</g>
<g>
</g>
<g>
</g>
<g>
</g>
<g>
</g>
<g>
</g>
<g>
</g>
<g>
</g>
<g>
</g>
<g>
</g>
<g>
</g>
<g>
</g>
<g>
</g>
</svg>
