<?xml version="1.0" encoding="iso-8859-1"?>
<!-- Generator: Adobe Illustrator 19.0.0, SVG Export Plug-In . SVG Version: 6.00 Build 0)  -->
<svg version="1.1" id="Layer_1" xmlns="http://www.w3.org/2000/svg" xmlns:xlink="http://www.w3.org/1999/xlink" x="0px" y="0px"
	 viewBox="0 0 490.524 490.524" style="enable-background:new 0 0 490.524 490.524;" xml:space="preserve">
<g>
	<g>
		<path style="fill:#2C2F33;" d="M358.023,255.815c-5-2.2-10.8,0-13.1,5.1c-8.5,19.1-20.6,36-36.1,50.2c-2,1.9-3.2,4.5-3.2,7.3
			v122.6h-169.8v-36.8c0-2.9-1.3-5.6-3.4-7.5c-2.2-1.9-5.1-2.7-7.9-2.3l-45.5,6.8c-12.8-0.4-23.2-10.9-23.2-23.8v-59.3
			c0-5.5-4.4-9.9-9.9-9.9h-15.4c-4.9,0-8.6-1.4-10-3.6c-1.4-2.3-0.9-6.2,1.4-10.5l32.7-62.4c0.7-1.4,1.1-3,1.1-4.6v-26.8
			c0-58.3,34.2-111.8,87.1-136.4c18.1-8.6,37.5-13.4,57.6-14.3c5.5-0.2,9.7-4.9,9.5-10.3c-0.2-5.5-4.8-9.7-10.3-9.5
			c-22.8,1-44.7,6.4-65.2,16.1c-59.8,27.9-98.4,88.5-98.4,154.4v24.2l-31.6,60.3c-5.6,10.7-5.9,21.6-0.8,30s14.9,13.2,26.9,13.2h5.5
			v49.3c0,24.1,19.6,43.6,43.6,43.6c0.5,0,1,0,1.5-0.1l34.9-5.2v35.2c0,5.5,4.4,9.9,9.9,9.9h189.7c5.5,0,9.9-4.4,9.9-9.9v-128.2
			c16-15.4,28.6-33.5,37.6-53.8C365.323,263.815,363.023,258.015,358.023,255.815z"/>
		<path style="fill:#2C2F33;" d="M450.723,29.915h-182.4c-22,0-39.9,17.9-39.9,39.9v111.3c0,22,17.9,39.9,39.9,39.9h13.6v43.2
			c0,4,2.4,7.5,6,9.1c1.3,0.5,2.6,0.8,3.9,0.8c2.5,0,5-0.9,6.9-2.8l52.6-50.4h99.3c22,0,39.9-17.9,39.9-39.9v-111.2
			C490.623,47.815,472.723,29.915,450.723,29.915z M470.823,181.115c0,11.1-9,20.1-20.1,20.1h-103.3c-2.6,0-5,1-6.8,2.8l-38.7,37.1
			v-30c0-5.5-4.4-9.9-9.9-9.9h-23.7c-11.1,0-20.1-9-20.1-20.1v-111.3c0-11.1,9-20.1,20.1-20.1h182.3c11.1,0,20.1,9,20.1,20.1v111.3
			L470.823,181.115L470.823,181.115z"/>
		<circle style="fill:#3C92CA;" cx="359.523" cy="125.315" r="12.8"/>
		<circle style="fill:#3C92CA;" cx="404.323" cy="125.315" r="12.8"/>
		<circle style="fill:#3C92CA;" cx="314.823" cy="125.315" r="12.8"/>
	</g>
</g>
<g>
</g>
<g>
</g>
<g>
</g>
<g>
</g>
<g>
</g>
<g>
</g>
<g>
</g>
<g>
</g>
<g>
</g>
<g>
</g>
<g>
</g>
<g>
</g>
<g>
</g>
<g>
</g>
<g>
</g>
</svg>
