<?xml version="1.0" encoding="iso-8859-1"?>
<!-- Generator: Adobe Illustrator 19.0.0, SVG Export Plug-In . SVG Version: 6.00 Build 0)  -->
<svg version="1.1" id="Layer_1" xmlns="http://www.w3.org/2000/svg" xmlns:xlink="http://www.w3.org/1999/xlink" x="0px" y="0px"
	 viewBox="0 0 490.2 490.2" style="enable-background:new 0 0 490.2 490.2;" xml:space="preserve">
<g>
	<g>
		<path style="fill:#2C2F33;" d="M432.595,338.7c-46.4-38.1-96.4-64.6-112.6-72.7v-68.5c10.2-8.7,16.1-21.4,16.1-35V82.2
			c0-45.3-36.9-82.2-82.2-82.2h-17.3c-45.3,0-82.2,36.9-82.2,82.2v80.2c0,13.6,5.9,26.3,16.1,35v68.5
			c-16.1,8.1-66.1,34.6-112.6,72.7c-11.3,9.3-17.8,23-17.8,37.7v55c0,5.5,4.4,9.9,9.9,9.9s9.9-4.4,9.9-9.9v-55
			c0-8.7,3.8-16.9,10.5-22.4c49-40.2,102.1-67,112.2-72c4.7-2.3,7.5-6.9,7.5-12.1v-77.4c0-3.3-1.7-6.4-4.4-8.2
			c-7.3-4.9-11.7-13.1-11.7-21.9V82.2c0-34.4,28-62.4,62.4-62.4h17.3c34.4,0,62.4,28,62.4,62.4v80.2c0,8.8-4.4,17-11.7,21.9
			c-2.8,1.8-4.4,4.9-4.4,8.2v77.4c0,5.2,2.9,9.8,7.6,12.1c10.2,5,63.3,31.8,112.2,72c6.7,5.5,10.5,13.7,10.5,22.4v55
			c0,5.5,4.4,9.9,9.9,9.9s9.9-4.4,9.9-9.9v-55C450.395,361.7,443.895,348,432.595,338.7z"/>
		<path style="fill:#3C92CA;" d="M301.295,375.4c-3.9-3.9-10.1-3.9-14,0l-41.9,42l-41.9-41.9c-3.9-3.9-10.1-3.9-14,0s-3.9,10.1,0,14
			l41.9,41.9l-41.9,41.9c-3.9,3.9-3.9,10.1,0,14c1.9,1.9,4.5,2.9,7,2.9s5.1-1,7-2.9l41.9-41.9l41.9,41.9c1.9,1.9,4.5,2.9,7,2.9
			s5.1-1,7-2.9c3.9-3.9,3.9-10.1,0-14l-41.9-41.9l41.9-41.9C305.195,385.6,305.195,379.3,301.295,375.4z"/>
	</g>
</g>
<g>
</g>
<g>
</g>
<g>
</g>
<g>
</g>
<g>
</g>
<g>
</g>
<g>
</g>
<g>
</g>
<g>
</g>
<g>
</g>
<g>
</g>
<g>
</g>
<g>
</g>
<g>
</g>
<g>
</g>
</svg>
