<?xml version="1.0" encoding="iso-8859-1"?>
<!-- Generator: Adobe Illustrator 19.0.0, SVG Export Plug-In . SVG Version: 6.00 Build 0)  -->
<svg version="1.1" id="Layer_1" xmlns="http://www.w3.org/2000/svg" xmlns:xlink="http://www.w3.org/1999/xlink" x="0px" y="0px"
	 viewBox="0 0 490.1 490.1" style="enable-background:new 0 0 490.1 490.1;" xml:space="preserve">
<g>
	<g>
		<path style="fill:#2C2F33;" d="M329.1,412.15v-43.6c0-12.3-5.4-23.7-14.8-31.5c-36-29.5-74.6-50.3-88.5-57.3v-52.2
			c8.1-7.3,12.8-17.6,12.8-28.7v-63.6c0-37.1-30.1-67.2-67.2-67.2h-13.7c-37.1,0-67.2,30.1-67.2,67.2v63.6c0,11,4.7,21.4,12.8,28.7
			v52.2c-13.9,7.1-52.5,27.8-88.5,57.3c-9.4,7.7-14.8,19.2-14.8,31.5v43.6c0,5.5,4.4,9.9,9.9,9.9h309.3
			C324.7,422.05,329.1,417.55,329.1,412.15z M309.3,402.25H19.8v-33.7c0-6.3,2.8-12.2,7.6-16.2c38.7-31.8,80.6-52.9,88.6-56.8
			c4.4-2.2,7.1-6.5,7.1-11.4v-61.3c0-3.3-1.7-6.4-4.4-8.2c-5.3-3.5-8.4-9.3-8.4-15.6v-63.6c0-26.1,21.3-47.4,47.4-47.4h13.7
			c26.1,0,47.4,21.3,47.4,47.4v63.6c0,6.3-3.1,12.1-8.4,15.6c-2.8,1.8-4.4,4.9-4.4,8.2v61.2c0,4.9,2.7,9.3,7.1,11.4
			c8,3.9,49.9,25.1,88.6,56.8c4.8,4,7.6,9.9,7.6,16.2L309.3,402.25L309.3,402.25z"/>
		<path style="fill:#3C92CA;" d="M337.7,272.35l41-39.3h77.8c18.6,0,33.6-15.1,33.6-33.6v-88.1c0-18.6-15.1-33.6-33.6-33.6H312.2
			c-18.6,0-33.6,15.1-33.6,33.6v88.1c0,18.6,15.1,33.6,33.6,33.6h8.7v32.2c0,4,2.4,7.5,6,9.1c1.3,0.5,2.6,0.8,3.9,0.8
			C333.4,275.05,335.8,274.15,337.7,272.35z M312.2,213.25c-7.6,0-13.8-6.2-13.8-13.8v-88.1c0-7.6,6.2-13.8,13.8-13.8h144.3
			c7.6,0,13.8,6.2,13.8,13.8v88.1c0,7.6-6.2,13.8-13.8,13.8h-81.8c-2.6,0-5,1-6.8,2.8l-27.2,26v-18.9c0-5.5-4.4-9.9-9.9-9.9
			L312.2,213.25L312.2,213.25z"/>
		<path style="fill:#3C92CA;" d="M333.8,147.95h101.1c5.5,0,9.9-4.4,9.9-9.9s-4.4-9.9-9.9-9.9H333.8c-5.5,0-9.9,4.4-9.9,9.9
			C323.9,143.45,328.4,147.95,333.8,147.95z"/>
		<path style="fill:#3C92CA;" d="M435,184.05c5.5,0,9.9-4.4,9.9-9.9s-4.4-9.9-9.9-9.9H333.8c-5.5,0-9.9,4.4-9.9,9.9s4.4,9.9,9.9,9.9
			H435z"/>
	</g>
</g>
<g>
</g>
<g>
</g>
<g>
</g>
<g>
</g>
<g>
</g>
<g>
</g>
<g>
</g>
<g>
</g>
<g>
</g>
<g>
</g>
<g>
</g>
<g>
</g>
<g>
</g>
<g>
</g>
<g>
</g>
</svg>
