<?xml version="1.0" encoding="iso-8859-1"?>
<!-- Generator: Adobe Illustrator 19.0.0, SVG Export Plug-In . SVG Version: 6.00 Build 0)  -->
<svg version="1.1" id="Layer_1" xmlns="http://www.w3.org/2000/svg" xmlns:xlink="http://www.w3.org/1999/xlink" x="0px" y="0px"
	 viewBox="0 0 490.1 490.1" style="enable-background:new 0 0 490.1 490.1;" xml:space="preserve">
<g>
	<g>
		<path style="fill:#2C2F33;" d="M173.65,187.8v64.4c-15.6,7.9-62.7,32.9-106.5,68.8c-10.8,8.9-17,22-17,36.1v52.1
			c0,5.5,4.4,9.9,9.9,9.9s9.9-4.4,9.9-9.9v-52.1c0-8.1,3.6-15.7,9.8-20.8c46.4-38.1,96.7-63.5,106.3-68.2c4.5-2.2,7.5-6.9,7.5-11.9
			v-73.3c0-3.3-1.7-6.4-4.4-8.2c-6.8-4.5-10.9-12.1-10.9-20.3v-76c0-32.3,26.3-58.6,58.6-58.6h16.4c32.3,0,58.6,26.3,58.6,58.6v76
			c0,8.2-4.1,15.7-10.9,20.3c-2.8,1.8-4.4,4.9-4.4,8.2v73.3c0,5,2.9,9.7,7.5,11.9c9.6,4.7,59.9,30.1,106.3,68.2
			c6.2,5.1,9.8,12.7,9.8,20.8v52.1c0,5.5,4.4,9.9,9.9,9.9s9.9-4.4,9.9-9.9v-52.1c0-14.1-6.2-27.2-17-36.1
			c-43.8-36-90.9-61-106.5-68.8v-64.4c9.7-8.3,15.3-20.5,15.3-33.4v-76c0-43.2-35.2-78.4-78.4-78.4h-16.4
			c-43.2,0-78.4,35.2-78.4,78.4v76C158.35,167.3,164.05,179.4,173.65,187.8z"/>
		<path style="fill:#3C92CA;" d="M244.95,328.2c-5.5,0-9.9,4.4-9.9,9.9v13h-1.1c-18.7,0-33.9,15.2-33.9,33.9
			c0,18.7,15.2,33.9,33.9,33.9h22c7.8,0,14.1,6.3,14.1,14.1c0,7.8-6.3,14.1-14.1,14.1h-39.4c-5.5,0-9.9,4.4-9.9,9.9s4.4,9.9,9.9,9.9
			h18.5v13.3c0,5.5,4.4,9.9,9.9,9.9s9.9-4.4,9.9-9.9v-13.3h1.1c18.7,0,33.9-15.2,33.9-33.9c0-18.7-15.2-33.9-33.9-33.9h-22
			c-7.8,0-14.1-6.3-14.1-14.1c0-7.8,6.3-14.1,14.1-14.1h38.7c5.5,0,9.9-4.4,9.9-9.9s-4.4-9.9-9.9-9.9h-17.8v-13
			C254.85,332.6,250.45,328.2,244.95,328.2z"/>
	</g>
</g>
<g>
</g>
<g>
</g>
<g>
</g>
<g>
</g>
<g>
</g>
<g>
</g>
<g>
</g>
<g>
</g>
<g>
</g>
<g>
</g>
<g>
</g>
<g>
</g>
<g>
</g>
<g>
</g>
<g>
</g>
</svg>
